<svg xmlns="http://www.w3.org/2000/svg" xmlns:xlink="http://www.w3.org/1999/xlink" width="234" height="148"><defs><linearGradient id="a" x1="105.828%" x2="-67.226%" y1="50%" y2="50%"><stop offset="0%" stop-color="#FFD618"/><stop offset="100%" stop-color="#FFAD0A"/></linearGradient><linearGradient id="b" x1="0%" x2="157.163%" y1="0%" y2="0%"><stop offset="0%" stop-color="#FFD618"/><stop offset="100%" stop-color="#FFAD0A"/></linearGradient><linearGradient id="c" x1="100%" x2="-109.587%" y1="50%" y2="50%"><stop offset="0%" stop-color="#FFD618"/><stop offset="100%" stop-color="#FFAD0A"/></linearGradient><linearGradient id="d" x1="50%" x2="50%" y1="0%" y2="100%"><stop offset="0%" stop-color="#FFD618"/><stop offset="100%" stop-color="#FFAD0A"/></linearGradient><linearGradient id="f" x1="-69.827%" y1="72.736%" y2="45.843%"><stop offset="0%" stop-color="#FEFFFE"/><stop offset="100%" stop-color="#9DF0A2"/></linearGradient><path id="e" d="M21.092 86.204C8.378 77.776 0 63.377 0 47.031 0 21.056 21.153 0 47.247 0 73.34 0 94.493 21.056 94.493 47.03c0 16.166-8.192 30.426-20.67 38.891v12.336a5.043 5.043 0 0 1-5.043 5.043H26.135a5.043 5.043 0 0 1-5.043-5.043V86.204z"/><linearGradient id="g" x1="50%" x2="50%" y1="0%" y2="100%"><stop offset="0%" stop-color="#29B932"/><stop offset="100%" stop-color="#A7F3AC"/></linearGradient><linearGradient id="i" x1="50%" x2="50%" y1="0%" y2="100%"><stop offset="0%" stop-color="#FFC73D"/><stop offset="100%" stop-color="#FFEE04"/></linearGradient></defs><g fill="none" fill-rule="evenodd" transform="translate(-6)"><path fill="#EDFFEE" d="M113.248 25.89c138.017-7.584 151.248 133.14 95.129 115.163-56.12-17.976-130.26-10.112-167.877 5.618C2.884 162.4-24.77 33.474 113.248 25.89z"/><path fill="#EDFFEE" d="M37.3 37.673c11.402-3.022-8.25-22.874-22.205-9.977C1.14 40.592 6.456 49.03 12.995 53.07c6.538 4.041 12.902-12.375 24.305-15.398z"/><path fill="url(#a)" fill-rule="nonzero" d="M27.616 106.66H67.3a3.15 3.15 0 1 1 0 6.299l-39.683-.001a3.15 3.15 0 1 1 0-6.299z" transform="translate(77.694)"/><path fill="url(#b)" fill-rule="nonzero" d="M29.726 116.317h35.463a3.15 3.15 0 0 1 0 6.299H29.726a3.15 3.15 0 0 1 0-6.299z" transform="translate(77.694)"/><path fill="url(#c)" fill-rule="nonzero" d="M32.06 121.776h30.268a5.879 5.879 0 0 1-5.88 5.879H37.94a5.879 5.879 0 0 1-5.879-5.879z" transform="translate(77.694)"/><path fill="url(#d)" fill-rule="nonzero" d="M40.919 127.655h12.55a5.879 5.879 0 0 1-5.879 5.879h-.792a5.879 5.879 0 0 1-5.879-5.879z" transform="translate(77.694)"/><g transform="translate(77.694)"><mask id="h" fill="#fff"><use xlink:href="#e"/></mask><use fill="url(#f)" xlink:href="#e"/><path stroke="url(#g)" stroke-linecap="round" stroke-width="6.637" d="M63.472 48.02H29.619c-8.386 0-8.386-12.327 0-12.327 10.138 0 10.138 21.68 10.138 69.014h15.4c0-47.334 0-69.014 10.139-69.014 8.386 0 8.386 12.328 0 12.328H31.443" mask="url(#h)"/></g><ellipse cx="53.793" cy="26.15" stroke="url(#i)" stroke-width="4.854" rx="9.449" ry="9.459"/><ellipse cx="181.637" cy="95.143" stroke="url(#i)" stroke-width="4.854" rx="6.114" ry="6.12"/><path stroke="url(#g)" stroke-linecap="round" stroke-width="6.683" d="M69.712 103.477c0-6.656-5.39-12.052-12.04-12.052-6.65 0-12.04 5.396-12.04 12.052s5.39 12.052 12.04 12.052" transform="rotate(103 57.672 103.477)"/></g></svg>