<svg width="479" height="280" xmlns="http://www.w3.org/2000/svg" xmlns:xlink="http://www.w3.org/1999/xlink"><defs><path id="a" d="M.249.273h142.428V95.04H.25z"/><path id="c" d="M0 .234h143.64v181.188H0z"/><linearGradient x1="50%" y1="0%" x2="50%" y2="100%" id="d"><stop stop-color="#05BFBC" offset="0%"/><stop stop-color="#028A86" offset="100%"/></linearGradient><path id="f" d="M.005.004h142.59v253.77H.006z"/><linearGradient x1="50%" y1="0%" x2="50%" y2="100%" id="g"><stop stop-color="#05BEBB" offset="0%"/><stop stop-color="#028A86" offset="100%"/></linearGradient><path id="i" d="M.06.106h75.573V129.6H.06z"/><linearGradient x1="58.726%" y1="261.9%" x2="55.732%" y2="-345.985%" id="k"><stop stop-color="#FCFEFF" offset="0%"/><stop stop-color="#95E0CA" offset="100%"/></linearGradient><linearGradient x1="0%" y1="100%" x2="50%" y2="29.312%" id="l"><stop stop-color="#A7F3AC" offset="0%"/><stop stop-color="#29B932" offset="100%"/></linearGradient><linearGradient x1="-21.775%" y1="50%" x2="105.908%" y2="61.399%" id="m"><stop stop-color="#A7F3AC" offset="0%"/><stop stop-color="#29B932" offset="100%"/></linearGradient><linearGradient x1="-28.941%" y1="7.855%" x2="91.259%" y2="50%" id="n"><stop stop-color="#A7F3AC" offset="0%"/><stop stop-color="#29B932" offset="100%"/></linearGradient><linearGradient x1="22.844%" y1="22.84%" x2="74.521%" y2="74.518%" id="o"><stop stop-color="#00A6F9" offset="0%"/><stop stop-color="#0071E2" offset="100%"/></linearGradient><radialGradient cx="50%" cy="50%" fx="50%" fy="50%" r="71.256%" gradientTransform="matrix(0 -1 .97858 0 .01 1)" id="p"><stop stop-color="#A9FBB1" offset="0%"/><stop stop-color="#2CAE34" offset="100%"/></radialGradient><linearGradient x1="9.992%" y1="18.518%" x2="143.424%" y2="145.804%" id="q"><stop stop-color="#A7F3AC" offset="0%"/><stop stop-color="#29B932" offset="100%"/></linearGradient><linearGradient x1="67.634%" y1="146.03%" x2="67.634%" y2="0%" id="r"><stop stop-color="#A9FBB1" offset="0%"/><stop stop-color="#2CAE34" offset="100%"/></linearGradient><linearGradient x1="43.653%" y1="135.514%" x2="38.531%" y2="106.731%" id="s"><stop stop-color="#A9FBB1" offset="0%"/><stop stop-color="#2CAE34" offset="100%"/></linearGradient><linearGradient x1="22.891%" y1="43.083%" x2="72.332%" y2="92.524%" id="t"><stop stop-color="#FFF" offset="0%"/><stop stop-color="#E8EFEE" offset="100%"/></linearGradient><linearGradient x1="66.167%" y1="83.191%" x2="17.476%" y2="21.957%" id="u"><stop stop-color="#C2CECE" stop-opacity="0" offset="0%"/><stop stop-color="#AFBCBC" stop-opacity=".179" offset="17.9%"/><stop stop-color="#5B6A6A" offset="100%"/></linearGradient><linearGradient x1="50.018%" y1="37.233%" x2="50.018%" y2="88.264%" id="v"><stop stop-color="#C2CECE" offset="0%"/><stop stop-color="#97AAAA" offset="100%"/></linearGradient><radialGradient cx="50%" cy="50%" fx="50%" fy="50%" r="71.256%" gradientTransform="matrix(0 -1 .9928 0 .004 1)" id="w"><stop stop-color="#A9FBB1" offset="0%"/><stop stop-color="#2CAE34" offset="100%"/></radialGradient><linearGradient x1="67.634%" y1="146.03%" x2="67.634%" y2="0%" id="x"><stop stop-color="#FEFFFE" offset="0%"/><stop stop-color="#E4FFE6" offset="100%"/></linearGradient><linearGradient x1="50%" y1="50%" x2="19.152%" y2="7.587%" id="y"><stop stop-color="#FFD618" offset="0%"/><stop stop-color="#FFAD0A" offset="100%"/></linearGradient><linearGradient x1="81.678%" y1="112.321%" x2="38.142%" y2="63.516%" id="z"><stop stop-color="#FFD618" offset="0%"/><stop stop-color="#FFAD0A" offset="100%"/></linearGradient><linearGradient x1="66.167%" y1="83.191%" x2="50%" y2="50%" id="A"><stop stop-color="#C2CECE" stop-opacity="0" offset="0%"/><stop stop-color="#AFBCBC" stop-opacity=".179" offset="100%"/></linearGradient><linearGradient x1="50%" y1="0%" x2="50%" y2="100%" id="B"><stop stop-color="#FFC73D" offset="0%"/><stop stop-color="#FFEE04" offset="100%"/></linearGradient></defs><g fill="none" fill-rule="evenodd"><path fill="#FFF" fill-rule="nonzero" d="M0 0h479v280H0z"/><g transform="translate(60)"><g transform="translate(81.634 158.76)"><mask id="b" fill="#fff"><use xlink:href="#a"/></mask><path d="M128.48 48.691c-5.584 4.385-12.252 7.248-17.926 11.52-5.672 4.273-10.511 10.687-9.95 17.71.62 7.684 7.55 13.191 14.521 16.66-10.562.459-44.959 0-58.45 0h-40.05c-3.606 0-9.062 1.033-12.523 0-9.1-2.717.593-9.605 1.969-17.045 1.678-9.056-1.126-19.539 4.618-26.789 3.065-3.87 8-5.854 12.887-6.79 8.216-1.571 16.684-.623 25.049-.916 8.36-.29 17.243-2.12 23.112-8.008 6.663-6.687 8.01-17.119 14.172-24.257C94.733.563 110.249.043 123.842.325c4.234.088 8.756.266 12.197 2.704 2.952 2.09 4.618 5.539 5.566 9.002 3.627 13.245-2.248 28.118-13.125 36.66" fill="#1FABA6" mask="url(#b)"/></g><path d="M158.597 214.172a74.378 74.378 0 0 0-6.446 3.742c4.987 1.758 21.155 6.375 40.454.676a56.244 56.244 0 0 0-3.226 2.263c-.264.205-.525.417-.783.627a69.433 69.433 0 0 1-15.116 1.671c-12.234 0-21.082-3.178-23.171-4.004-21.237 14.724-25.748 34.794-25.795 35.021a.896.896 0 0 1-1.062.692.9.9 0 0 1-.69-1.068c.04-.183 2.916-13.064 14.79-25.934-1.758-2.45-7.964-12.053-7.288-24.601.6-.047 1.199-.117 1.8-.18-.732 11.722 4.888 20.8 6.744 23.457a71.138 71.138 0 0 1 10.912-9.163 76.925 76.925 0 0 1 8.06-4.8c4.522-2.336 8.828-5.004 12.875-7.847-.438-3.48-2.423-22.4 3.121-40.743a32.122 32.122 0 0 1 2.162-.901c-5.58 17.136-4.19 35.237-3.62 40.457 20.618-14.963 34.097-33.948 34.26-34.181a.891.891 0 0 1 1.247-.216.901.901 0 0 1 .214 1.254c-.168.239-14.294 20.142-35.82 35.426-.061.044-.125.088-.19.131-4.212 2.98-8.706 5.78-13.432 8.221" fill="#1E6866"/><path d="M173.938 205.2a1.606 1.606 0 0 1-.351.242c.119-.08.238-.162.351-.242" fill="#13514F"/><path d="M106.294 253.357H24.01c-2.057-4.15.386-9.457 2.913-13.342 2.524-3.885 5.753-7.565 6.566-12.118 1.668-9.353-7.097-16.814-12.763-24.46-1.805-2.434-3.302-5.015-4.575-7.694a272.816 272.816 0 0 1-8.577-11.773C4.7 179.79 1.885 175.396.861 170.433c-1.027-4.96.087-10.665 4.004-13.907 1.314-1.09 2.785-1.8 4.352-2.278a335.74 335.74 0 0 1-.032-1.693c-.23-14.062-.453-28.188 1.494-42.118 1.729-12.36 5.512-25.08 14.469-33.824 1.87-1.828 4.044-3.5 6.606-4.055 4.946-1.064 9.806 2.313 12.92 6.279 8.778 11.175 8.761 26.544 10.525 40.615 1.761 14.071 7.628 29.98 21.26 34.153 7.765 2.376 17.974 1.119 22.19 8.02 3.568 5.84-.035 13.166-1.373 19.868-.365 1.82-.545 3.735-.008 5.511 1.285 4.251 6.005 6.262 10.038 8.162 15.606 7.351 35.387 26.542 35.982 45.106.554 17.258-25.732 13.085-36.994 13.085" fill="#21A39F"/><g transform="translate(.5 71.28)"><mask id="e" fill="#fff"><use xlink:href="#c"/></mask><path d="M106.419 180.98h-82.77c-2.069-4.145.388-9.444 2.93-13.324 2.54-3.879 5.787-7.554 6.605-12.101 1.678-9.34-7.139-16.79-12.839-24.426-1.815-2.43-3.32-5.008-4.602-7.684a272.528 272.528 0 0 1-8.627-11.756c-2.892-4.176-5.723-8.562-6.753-13.518C-.67 93.217.451 87.52 4.39 84.283c1.322-1.088 2.802-1.797 4.378-2.275-.012-.564-.023-1.129-.032-1.69-.23-14.043-.456-28.15 1.503-42.06 1.74-12.344 5.545-25.045 14.554-33.777C26.676 2.655 28.861.985 31.438.432c4.976-1.063 9.865 2.31 12.996 6.27 8.831 11.16 8.814 26.507 10.588 40.559 1.772 14.051 7.673 29.937 21.386 34.105 7.81 2.373 18.08 1.117 22.32 8.009 3.59 5.832-.034 13.147-1.38 19.84-.368 1.818-.549 3.73-.009 5.504 1.293 4.245 6.042 6.253 10.098 8.15 15.698 7.342 35.596 26.505 36.194 45.044.558 17.234-25.883 13.066-37.212 13.066" fill="url(#d)" mask="url(#e)"/></g><path d="M88.125 252.936a.865.865 0 0 1-.864.864h-.002a.865.865 0 0 1-.861-.867c.008-6.026-.936-18.673-7.642-33.361-1.284.112-4.468.34-8.925.34-9.613 0-25.137-1.066-40.213-6.678a77.556 77.556 0 0 0-2.127-2.758c21.533 8.896 44.9 7.795 50.46 7.373a91.456 91.456 0 0 0-5.972-10.526c-1.275.11-4.466.341-8.94.341-10.367 0-27.608-1.245-43.748-8.086a50.532 50.532 0 0 1-1.4-2.573c21.873 10.038 46.573 9.075 52.942 8.619a96.476 96.476 0 0 0-5.488-7.222c-10.845-12.98-20.338-32.486-26.306-53.937-3.08-.775-19.077-5.174-28.803-14.812.023-.838.05-1.676.084-2.515 8.421 9.252 23.479 14.023 28.172 15.333a187.933 187.933 0 0 1-2.226-9.28c-3.564-.934-16.319-4.657-25.627-12.238.05-.74.118-1.477.179-2.216 8.421 7.283 20.571 11.216 25.042 12.485-4.146-20.607-4.24-39.847-.187-54.98a.864.864 0 1 1 1.667.451c-4.61 17.208-3.748 39.87 2.424 63.818.818 3.17 1.713 6.304 2.68 9.385 2.543-3.382 9.421-13.211 14.178-26.295a67.94 67.94 0 0 0 .67 3.237c-5.38 13.558-12.665 23.185-14.188 25.118 4.39 13.44 10.135 25.81 16.642 35.867 3.354-2.182 18.227-12.803 24.36-33.063.593.09 1.186.18 1.78.268-6.231 20.902-21.537 31.92-25.159 34.284a94.207 94.207 0 0 0 5.943 7.974c19.405 23.228 21.47 46.656 21.455 55.65" fill="#1E6866"/><g><g transform="translate(214.695)"><mask id="h" fill="#fff"><use xlink:href="#f"/></mask><path d="M115.957 136.484c-1.096 4.613-2.072 9.334-1.484 14.018 1.598 12.75 14.28 22.673 15.916 35.42 1.582 12.333-7.406 23.424-14.065 34.291-6.66 10.866-10.176 24.687-.54 33.561H.004c.477-11.308 4.821-24.468 15.184-30.863 2.546-1.573 5.51-2.632 7.73-4.566 6.41-5.573 3.95-15.253 6.989-22.798 3.317-8.234 12.659-12.906 19.982-18.674 19.236-15.147 25.596-39.675 26.77-62.667 1.176-22.992-1.718-46.342 3.624-68.849 1.621-6.83 4.038-13.602 8.237-19.473 7.398-10.35 19.57-16.99 31.32-23.269 2.328-1.244 4.783-2.522 7.487-2.607 4.989-.157 8.988 3.764 11.18 7.806 4.338 7.983 4.487 17.264 3.75 26.128-2.915 35.034-18.124 68.191-26.3 102.542" fill="url(#g)" mask="url(#h)"/></g><path d="M312.635 81.182a370.322 370.322 0 0 1 2.545-10.962c4.342-.37 23.31-2.845 38.36-17.823.248-1.321.484-2.644.706-3.97-14.117 15.8-32.988 18.928-38.49 19.505 5.704-22.367 12.962-41.865 20.363-55.483a1.12 1.12 0 0 0-.43-1.512 1.093 1.093 0 0 0-1.49.438c-11.506 21.167-22.36 54.804-27.988 91.734-3.04-3.95-9.768-13.387-14.332-24.81-.023 1.858-.035 3.72-.034 5.582 5.36 11.507 12.216 20.161 13.93 22.242-3.051 21.187-4.367 43.363-3.076 64.828 2.479 41.193-8.953 70.68-15.524 83.929h2.443c6.76-13.966 17.718-43.413 15.272-84.064-.208-3.46-.34-6.95-.41-10.455 3.172-.93 14.48-4.557 24.136-11.39a28.414 28.414 0 0 1 .063-2.858c-9.099 6.835-20.376 10.728-24.231 11.928-.297-25.069 2.753-50.94 7.71-74.592 2.795-.18 22.594-2.037 38.381-17.32.347-1.403.674-2.808 1-4.214-14.76 16.28-34.552 18.893-38.904 19.267" fill="#1E6866"/><path d="M245.165 253.305c-22.285 1.07-44.843.072-67.162.072-3.837-14.35-7.302-30.443-.721-43.788 5.599-11.36 17.511-18.339 24.768-28.744a41.488 41.488 0 0 0 7.06-18.07c1.204-8.868-.505-17.861-.32-26.807.186-8.946 2.851-18.68 10.333-23.72 6.501-4.377 15.613-4.063 22.333-.018 6.72 4.041 11.061 11.353 12.376 19.018 1.08 6.286.286 12.734.784 19.088a47.311 47.311 0 0 0 6.816 20.933c4.75 7.747 11.712 14.108 15.66 22.282 11.207 23.201-5.015 58.461-31.927 59.754" fill="#1FABA6"/><g transform="translate(201.713 125.28)"><mask id="j" fill="#fff"><use xlink:href="#i"/></mask><path d="M75.633 71.788c-.292-.795-.61-1.58-.959-2.351-11.634 14.566-38.49 23.994-47.15 26.738a334.97 334.97 0 0 0 3.528-22.19c.014-.036.05-.053.06-.09.045-.166.042-.33.014-.49a320.004 320.004 0 0 0 1.79-19.37c1.19-.524 15.543-7.016 21.61-17.475a48.633 48.633 0 0 1-.913-3.178c-4.172 9.515-16.76 16.266-20.548 18.116.185-3.47.31-7.01.374-10.604 2.584-1.199 12.843-6.287 19.007-14.17-.047-.448-.108-.895-.143-1.344a56.207 56.207 0 0 1-.12-2.19c-4.91 7.771-14.901 13.302-18.696 15.196.112-11.947-.506-24.498-2.197-37.31-.083-.613-.661-1.043-1.245-.96a1.117 1.117 0 0 0-.951 1.255c3.374 25.555 2.449 50.072-.033 70.758-4.269-1.393-18.432-6.635-27.72-17.318-.275.437-.543.877-.834 1.303-.143.21-.3.411-.447.619C3.316 60.4 7.372 63.769 12.206 66.76c7.26 4.494 14.08 6.85 16.567 7.627a332.175 332.175 0 0 1-3.651 22.523l-.36.104a1.119 1.119 0 0 0-.774 1.373c.098.359.378.576.698.697-3.3 16.115-6.818 27.165-7.937 30.509.777.003 1.553.005 2.33.006 1.364-4.165 4.774-15.241 7.942-30.918 7.27-2.191 35.523-11.478 48.612-26.894" fill="#1E6866" mask="url(#j)"/></g></g><path d="M160.252 235.524c200.97-2.139 220.237 37.537 138.52 32.468-81.717-5.068-189.677-2.85-244.45 1.584-54.774 4.435-95.041-31.914 105.93-34.052z" fill="url(#k)" transform="translate(.5)"/><g transform="rotate(-25 312.275 7.083)"><path fill="url(#l)" d="M62.777 22.68h7.338v14.58h-7.338z"/><path d="M65.223 27.54c-7.655 0-13.86-6.165-13.86-13.77C51.363 6.165 57.568 0 65.223 0c7.655 0 13.86 6.165 13.86 13.77 0 7.605-6.205 13.77-13.86 13.77zm0-5.987c4.66 0 8.436-3.753 8.436-8.382S69.882 4.79 65.223 4.79c-4.66 0-8.437 3.752-8.437 8.381 0 4.63 3.778 8.382 8.437 8.382z" fill="url(#m)"/><ellipse fill="url(#n)" cx="64" cy="98.415" rx="64" ry="63.585"/><ellipse fill="url(#o)" fill-rule="nonzero" cx="64.815" cy="98.415" rx="54.217" ry="53.055"/><ellipse fill="url(#p)" cx="64.815" cy="98.415" rx="54.217" ry="53.055"/><ellipse fill="url(#q)" cx="64.815" cy="98.415" rx="54.217" ry="53.055"/><path d="M65.223 48.6a2.446 2.446 0 0 1 2.446 2.446v8.068a2.446 2.446 0 1 1-4.892 0v-8.068a2.446 2.446 0 0 1 2.446-2.446z" fill="url(#r)"/><path d="M22.828 91.502a2.435 2.435 0 0 1 2.435 2.435v8.146a2.435 2.435 0 0 1-4.87 0v-8.146a2.435 2.435 0 0 1 2.435-2.435z" fill="url(#r)" transform="rotate(-90 22.828 98.01)"/><path d="M87.429 70.69L56.255 89.383l7.195 7.15 7.196 7.148 18.813-30.972c.798-1.313-.708-2.81-2.03-2.017z" fill="url(#r)"/><path d="M90.043 72.09l-26.45 25.332 7.38 7.068 19.296-30.623c.41-.648.227-1.343-.226-1.777z" fill="url(#s)"/><path d="M36.91 122.502L55.724 91.53l7.195 7.149 7.196 7.149-31.174 18.691c-1.322.793-2.828-.704-2.03-2.017z" fill="url(#t)" fill-rule="nonzero"/><path d="M36.688 124.289L62.823 98.01l7.292 7.332-31.593 19.171c-.67.407-1.386.226-1.834-.224z" fill="url(#u)" fill-rule="nonzero"/><ellipse fill="url(#v)" fill-rule="nonzero" cx="64" cy="98.415" rx="5.299" ry="5.265"/><path d="M65.223 132.84a2.446 2.446 0 0 1 2.446 2.446v8.878a2.446 2.446 0 0 1-4.892 0v-8.878a2.446 2.446 0 0 1 2.446-2.446z" fill="url(#r)"/><path d="M107.618 91.502a2.435 2.435 0 0 1 2.435 2.435v8.146a2.435 2.435 0 1 1-4.87 0v-8.146a2.435 2.435 0 0 1 2.435-2.435z" fill="url(#r)" transform="rotate(-90 107.618 98.01)"/></g><g transform="translate(115.5 44)"><path fill="url(#l)" d="M82.885 30.38h9.688v19.53h-9.688z"/><path d="M86.115 36.89c-10.107 0-18.3-8.258-18.3-18.445C67.815 8.258 76.008 0 86.115 0c10.106 0 18.299 8.258 18.299 18.445 0 10.187-8.193 18.445-18.3 18.445zm0-8.02c6.151 0 11.138-5.026 11.138-11.227 0-6.2-4.987-11.227-11.138-11.227-6.152 0-11.14 5.026-11.14 11.227 0 6.2 4.988 11.227 11.14 11.227z" fill="url(#m)"/><ellipse fill="url(#n)" cx="84.5" cy="131.827" rx="84.5" ry="85.172"/><ellipse fill="url(#o)" fill-rule="nonzero" cx="85.576" cy="131.827" rx="71.583" ry="71.067"/><ellipse fill="url(#w)" cx="85.576" cy="131.827" rx="71.583" ry="71.067"/><ellipse fill="url(#x)" cx="85.576" cy="131.827" rx="71.583" ry="71.067"/><path d="M86.115 65.1a3.23 3.23 0 0 1 3.229 3.23v10.9a3.23 3.23 0 0 1-6.459 0v-10.9a3.23 3.23 0 0 1 3.23-3.23z" fill="url(#r)"/><path d="M30.14 122.674a3.255 3.255 0 0 1 3.255 3.255v10.712a3.255 3.255 0 1 1-6.51 0V125.93a3.255 3.255 0 0 1 3.255-3.255z" fill="url(#r)" transform="rotate(-90 30.14 131.285)"/><path d="M115.433 94.69l-41.16 25.038 9.501 9.576 9.5 9.576 24.84-41.487c1.053-1.76-.935-3.764-2.68-2.702z" fill="url(#y)" fill-rule="nonzero"/><path d="M118.885 96.565l-34.923 33.932 9.744 9.468 25.477-41.02c.54-.868.3-1.799-.298-2.38z" fill="url(#z)" fill-rule="nonzero"/><path d="M48.733 164.092l24.84-41.487 9.5 9.576 9.5 9.576-41.16 25.037c-1.744 1.062-3.733-.943-2.68-2.702z" fill="url(#t)" fill-rule="nonzero"/><path d="M48.44 166.486l34.506-35.201 9.627 9.821-41.713 25.68c-.883.545-1.83.303-2.42-.3z" fill="url(#A)" fill-rule="nonzero"/><ellipse fill="url(#v)" fill-rule="nonzero" cx="84.5" cy="131.827" rx="6.997" ry="7.053"/><path d="M86.115 177.94a3.23 3.23 0 0 1 3.229 3.23v11.986a3.23 3.23 0 0 1-6.459 0v-11.987a3.23 3.23 0 0 1 3.23-3.229z" fill="url(#r)"/><path d="M142.09 122.674a3.255 3.255 0 0 1 3.254 3.255v10.712a3.255 3.255 0 1 1-6.51 0V125.93a3.255 3.255 0 0 1 3.255-3.255z" fill="url(#r)" transform="rotate(-90 142.09 131.285)"/></g><circle stroke="url(#B)" stroke-width="9" cx="137.5" cy="31" r="16"/><circle stroke="url(#B)" stroke-width="8.545" cx="39" cy="94.5" r="10.5"/></g></g></svg>