<svg width="479" height="280" xmlns="http://www.w3.org/2000/svg" xmlns:xlink="http://www.w3.org/1999/xlink"><defs><linearGradient x1="101.603%" y1="126.682%" x2="27.593%" y2="23.475%" id="a"><stop stop-color="#A9FBB1" offset="0%"/><stop stop-color="#2CAE34" offset="100%"/></linearGradient><path id="b" d="M.258.283H147.89V98.56H.26z"/><path id="d" d="M0 .243h148.888V188.14H0z"/><linearGradient x1="50%" y1="0%" x2="50%" y2="100%" id="e"><stop stop-color="#05BFBC" offset="0%"/><stop stop-color="#028A86" offset="100%"/></linearGradient><path id="g" d="M.005.004h147.8v263.169H.005z"/><linearGradient x1="50%" y1="0%" x2="50%" y2="100%" id="h"><stop stop-color="#05BEBB" offset="0%"/><stop stop-color="#028A86" offset="100%"/></linearGradient><path id="j" d="M.062.11h78.334V134.4H.062z"/><linearGradient x1="58.726%" y1="261.9%" x2="55.732%" y2="-345.985%" id="l"><stop stop-color="#FCFEFF" offset="0%"/><stop stop-color="#95E0CA" offset="100%"/></linearGradient><linearGradient x1="50%" y1="0%" x2="50%" y2="100%" id="m"><stop stop-color="#FFC73D" offset="0%"/><stop stop-color="#FFEE04" offset="100%"/></linearGradient><linearGradient x1="50%" y1="50%" x2="19.152%" y2="7.587%" id="n"><stop stop-color="#FFD618" offset="0%"/><stop stop-color="#FFAD0A" offset="100%"/></linearGradient><linearGradient x1="67.634%" y1="132.218%" x2="67.634%" y2="-65.114%" id="p"><stop stop-color="#A9FBB1" offset="0%"/><stop stop-color="#2CAE34" offset="100%"/></linearGradient><path d="M199.181 63.756H29.288C27.628 43.57 11.355 35.636.422 33.78v-7.037h6.014a3.427 3.427 0 0 0 3.427-3.428V.417h72.266L97.98 25.166a3.437 3.437 0 0 0 2.89 1.577h42.492a3.433 3.433 0 0 0 2.99-1.756l11.833-21.194h83.87c-5.24 38.352-37.808 57.241-42.874 59.963z" id="o"/><linearGradient x1="67.634%" y1="235.091%" x2="67.634%" y2="0%" id="q"><stop stop-color="#A9FBB1" offset="0%"/><stop stop-color="#2CAE34" offset="100%"/></linearGradient><linearGradient x1="67.634%" y1="146.03%" x2="67.634%" y2="0%" id="t"><stop stop-color="#FEFFFE" offset="0%"/><stop stop-color="#E4FFE6" offset="100%"/></linearGradient><path d="M0 0h95.592c11.109 10.573 16.663 24.248 16.663 41.025 0 16.776-5.554 30.45-16.663 41.024H0c11.108-10.573 16.663-24.248 16.663-41.024C16.663 24.248 11.108 10.573 0 0z" id="s"/><linearGradient x1="67.634%" y1="146.03%" x2="67.634%" y2="0%" id="u"><stop stop-color="#FEFFFE" offset="0%"/><stop stop-color="#C7FFCA" offset="100%"/></linearGradient><path d="M0 0h52.027c6.046 5.805 9.069 13.313 9.069 22.523 0 9.21-3.023 16.719-9.069 22.524H0c6.046-5.805 9.069-13.313 9.069-22.524C9.069 13.313 6.046 5.805 0 0z" id="w"/><path d="M0 0h95.84c11.137 11.195 16.705 25.674 16.705 43.438 0 17.763-5.568 32.242-16.705 43.438H0C11.137 75.68 16.706 61.2 16.706 43.438 16.706 25.674 11.137 11.195 0 0z" id="y"/><path d="M0 0h56.135c6.523 6.634 9.784 15.215 9.784 25.74 0 10.527-3.261 19.108-9.784 25.742H0c6.523-6.634 9.785-15.215 9.785-25.741S6.523 6.634 0 0z" id="A"/></defs><g fill="none" fill-rule="evenodd"><path fill="#FFF" fill-rule="nonzero" d="M0 0h479v280H0z"/><path d="M239.09 39.123a8.557 8.557 0 0 1-.144-1.345 8.533 8.533 0 0 0-15.65 1.983 8.529 8.529 0 0 1 16.205-5.273 8.529 8.529 0 1 1 16.351 4.635 8.532 8.532 0 0 0-16.761 0z" fill="url(#a)"/><g transform="translate(51.548)"><g transform="translate(95.36 164.64)"><mask id="c" fill="#fff"><use xlink:href="#b"/></mask><path d="M133.174 50.495c-5.788 4.547-12.7 7.515-18.582 11.946-5.878 4.43-10.894 11.083-10.312 18.366.642 7.969 7.825 13.68 15.051 17.276-10.949.477-46.601 0-60.586 0H17.232c-3.738 0-9.393 1.072-12.98 0-9.433-2.816.615-9.96 2.04-17.675 1.74-9.391-1.166-20.263 4.787-27.781 3.178-4.014 8.293-6.071 13.358-7.042 8.516-1.63 17.294-.646 25.964-.95 8.667-.3 17.873-2.198 23.956-8.305 6.907-6.934 8.302-17.752 14.69-25.155C98.193.584 114.276.045 128.366.337c4.389.092 9.076.276 12.643 2.805 3.06 2.167 4.787 5.743 5.77 9.334 3.759 13.736-2.33 29.16-13.605 38.019" fill="#1FABA6" mask="url(#c)"/></g><path d="M175.135 222.105a77.086 77.086 0 0 0-6.682 3.88c5.17 1.823 21.928 6.61 41.932.701a58.298 58.298 0 0 0-3.344 2.347c-.274.212-.544.433-.812.65a71.936 71.936 0 0 1-15.667 1.733c-12.682 0-21.853-3.296-24.019-4.152-22.012 15.27-26.688 36.082-26.736 36.318a.93.93 0 0 1-1.101.717.933.933 0 0 1-.716-1.107c.042-.19 3.022-13.549 15.33-26.895-1.822-2.54-8.254-12.499-7.553-25.512.622-.048 1.242-.121 1.864-.188-.758 12.158 5.067 21.572 6.992 24.327a73.745 73.745 0 0 1 11.31-9.502 79.727 79.727 0 0 1 8.354-4.978c4.688-2.422 9.15-5.19 13.346-8.138-.454-3.608-2.511-23.23 3.235-42.252.731-.335 1.48-.65 2.24-.934-5.782 17.77-4.342 36.542-3.752 41.955 21.372-15.517 35.343-35.205 35.511-35.447a.923.923 0 0 1 1.294-.224c.417.297.52.88.222 1.3-.174.249-14.816 20.89-37.13 36.74-.063.045-.129.09-.195.135-4.366 3.091-9.024 5.994-13.923 8.526" fill="#1E6866"/><path d="M191.036 212.8c-.106.095-.23.185-.364.251.123-.083.247-.168.364-.251" fill="#13514F"/><path d="M120.92 262.74H35.631c-2.132-4.304.4-9.807 3.02-13.835 2.616-4.029 5.963-7.845 6.805-12.568 1.729-9.699-7.356-17.436-13.23-25.365-1.87-2.524-3.422-5.2-4.742-7.98-3.07-3.989-6.036-8.06-8.89-12.208-2.98-4.337-5.897-8.892-6.958-14.039-1.065-5.144.09-11.06 4.15-14.422 1.362-1.13 2.887-1.866 4.51-2.362-.011-.586-.023-1.173-.032-1.756-.238-14.583-.47-29.232 1.549-43.678 1.792-12.818 5.713-26.008 14.997-35.076 1.94-1.896 4.192-3.631 6.847-4.205 5.128-1.104 10.165 2.398 13.392 6.51 9.1 11.59 9.082 27.528 10.91 42.12 1.826 14.593 7.906 31.09 22.038 35.418 8.047 2.464 18.63 1.16 23 8.317 3.698 6.057-.037 13.653-1.423 20.604-.38 1.887-.566 3.873-.01 5.715 1.333 4.409 6.226 6.494 10.406 8.464 16.176 7.624 36.68 27.525 37.296 46.777.575 17.897-26.671 13.57-38.346 13.57" fill="#21A39F"/><g transform="translate(11.262 73.92)"><mask id="f" fill="#fff"><use xlink:href="#d"/></mask><path d="M110.306 187.682H24.513c-2.145-4.298.402-9.793 3.037-13.816 2.632-4.023 5.999-7.834 6.846-12.55 1.74-9.686-7.4-17.412-13.307-25.33-1.882-2.52-3.443-5.194-4.77-7.969a282.614 282.614 0 0 1-8.943-12.191c-2.998-4.33-5.932-8.88-7-14.02-1.07-5.137.091-11.044 4.175-14.401 1.37-1.13 2.904-1.864 4.537-2.36a345.34 345.34 0 0 1-.033-1.753C8.816 68.73 8.583 54.1 10.613 39.675c1.803-12.801 5.748-25.972 15.086-35.028 1.951-1.893 4.217-3.626 6.888-4.199 5.158-1.102 10.225 2.395 13.47 6.502 9.154 11.573 9.136 27.49 10.975 42.061C58.868 63.583 64.985 80.058 79.2 84.38c8.095 2.461 18.74 1.16 23.135 8.306 3.721 6.048-.036 13.634-1.43 20.575-.382 1.885-.57 3.868-.01 5.708 1.34 4.402 6.262 6.484 10.467 8.452 16.272 7.613 36.896 27.486 37.517 46.712.577 17.872-26.83 13.55-38.573 13.55" fill="url(#e)" mask="url(#f)"/></g><path d="M102.088 262.304a.897.897 0 0 1-.895.896h-.003a.897.897 0 0 1-.892-.9c.008-6.248-.97-19.364-7.92-34.596-1.332.117-4.632.354-9.252.354-9.965 0-26.056-1.106-41.682-6.927a80.423 80.423 0 0 0-2.205-2.86c22.32 9.226 46.54 8.085 52.303 7.647a94.855 94.855 0 0 0-6.19-10.916c-1.322.114-4.629.353-9.266.353-10.747 0-28.617-1.291-45.347-8.386a52.411 52.411 0 0 1-1.45-2.667c22.672 10.41 48.274 9.411 54.875 8.937-1.71-2.487-3.599-4.99-5.688-7.49-11.242-13.46-21.08-33.688-27.267-55.934-3.194-.803-19.774-5.365-29.855-15.36.024-.87.05-1.738.086-2.608 8.73 9.594 24.337 14.543 29.202 15.9a194.974 194.974 0 0 1-2.307-9.624c-3.695-.968-16.915-4.828-26.564-12.69.051-.767.123-1.531.186-2.299 8.729 7.553 21.322 11.632 25.957 12.948-4.297-21.37-4.396-41.322-.194-57.015a.896.896 0 1 1 1.728.467c-4.778 17.845-3.886 41.346 2.513 66.181a195.118 195.118 0 0 0 2.778 9.732c2.635-3.507 9.765-13.7 14.695-27.268.206 1.118.433 2.239.695 3.356-5.577 14.06-13.128 24.044-14.706 26.05 4.55 13.936 10.504 26.764 17.249 37.195 3.477-2.263 18.893-13.278 25.25-34.288l1.844.278c-6.458 21.676-22.322 33.102-26.077 35.553a97.693 97.693 0 0 0 6.16 8.27c20.114 24.088 22.254 48.384 22.24 57.71" fill="#1E6866"/><g><g transform="translate(233.282)"><mask id="i" fill="#fff"><use xlink:href="#g"/></mask><path d="M120.193 141.539c-1.136 4.783-2.148 9.68-1.539 14.538 1.657 13.221 14.802 23.512 16.498 36.73 1.64 12.79-7.676 24.293-14.579 35.562-6.903 11.269-10.547 25.602-.56 34.804H.005c.494-11.727 4.997-25.374 15.738-32.006 2.639-1.631 5.71-2.73 8.013-4.735 6.644-5.78 4.093-15.818 7.243-23.642 3.439-8.54 13.122-13.384 20.712-19.367 19.94-15.707 26.531-41.143 27.75-64.987 1.218-23.844-1.782-48.059 3.755-71.399 1.68-7.084 4.185-14.105 8.537-20.195 7.67-10.733 20.287-17.618 32.465-24.13 2.413-1.29 4.958-2.615 7.76-2.704 5.172-.162 9.317 3.903 11.59 8.095 4.496 8.28 4.65 17.904 3.887 27.097-3.023 36.33-18.787 70.716-27.262 106.339" fill="url(#h)" mask="url(#i)"/></g><path d="M334.8 84.189a384.192 384.192 0 0 1 2.638-11.369c4.5-.383 24.162-2.95 39.761-18.483.257-1.37.502-2.741.732-4.116-14.633 16.385-34.194 19.628-39.895 20.227 5.911-23.196 13.434-43.416 21.106-57.538a1.161 1.161 0 0 0-.447-1.568 1.132 1.132 0 0 0-1.544.454c-11.926 21.951-23.176 56.834-29.01 95.131-3.151-4.096-10.125-13.881-14.855-25.729a444.774 444.774 0 0 0-.036 5.79c5.556 11.933 12.662 20.908 14.439 23.065-3.162 21.973-4.526 44.97-3.188 67.23 2.569 42.718-9.28 73.297-16.091 87.037h2.531c7.008-14.483 18.366-45.02 15.83-87.178a272.723 272.723 0 0 1-.424-10.841c3.288-.966 15.009-4.727 25.018-11.813a29.48 29.48 0 0 1 .065-2.963c-9.432 7.088-21.12 11.125-25.116 12.37-.308-25.998 2.853-52.828 7.99-77.355 2.898-.188 23.421-2.113 39.785-17.962.36-1.455.698-2.912 1.035-4.37-15.299 16.883-35.813 19.593-40.324 19.98" fill="#1E6866"/><path d="M264.865 262.687c-23.099 1.11-46.48.074-69.616.074-3.977-14.88-7.568-31.57-.747-45.41 5.803-11.78 18.151-19.017 25.673-29.808a43.036 43.036 0 0 0 7.318-18.74c1.247-9.196-.524-18.522-.333-27.8.194-9.277 2.956-19.371 10.712-24.597 6.738-4.54 16.183-4.214 23.148-.02 6.966 4.192 11.466 11.774 12.829 19.724 1.119 6.517.296 13.205.813 19.794a49.08 49.08 0 0 0 7.064 21.708c4.925 8.034 12.14 14.63 16.232 23.107 11.617 24.061-5.198 60.627-33.093 61.968" fill="#1FABA6"/><g transform="translate(219.826 129.92)"><mask id="k" fill="#fff"><use xlink:href="#j"/></mask><path d="M78.396 74.447a35.92 35.92 0 0 0-.994-2.439C65.343 87.114 37.506 96.892 28.53 99.738a347.532 347.532 0 0 0 3.658-23.013c.014-.037.051-.055.062-.094.046-.172.043-.342.014-.506a332.014 332.014 0 0 0 1.855-20.089c1.235-.543 16.112-7.275 22.4-18.122a50.453 50.453 0 0 1-.946-3.295c-4.325 9.867-17.372 16.868-21.3 18.787.193-3.599.322-7.27.389-10.998 2.678-1.243 13.312-6.519 19.701-14.695-.049-.464-.112-.928-.148-1.393a58.317 58.317 0 0 1-.124-2.271C49 32.108 38.644 37.843 34.71 39.808c.116-12.39-.524-25.406-2.277-38.691-.086-.637-.686-1.082-1.29-.997a1.158 1.158 0 0 0-.986 1.302c3.497 26.502 2.538 51.926-.034 73.378-4.425-1.445-19.106-6.88-28.734-17.958-.284.452-.562.909-.863 1.35-.149.219-.311.427-.464.642 3.375 3.803 7.58 7.297 12.59 10.4 7.526 4.66 14.593 7.104 17.172 7.91A344.632 344.632 0 0 1 26.04 100.5c-.203.06-.352.102-.374.108a1.16 1.16 0 0 0-.802 1.424c.102.372.392.597.724.723-3.421 16.712-7.067 28.171-8.227 31.638.805.004 1.61.006 2.414.007 1.415-4.319 4.95-15.806 8.233-32.063 7.537-2.273 36.82-11.904 50.388-27.89" fill="#1E6866" mask="url(#k)"/></g></g><path d="M166.106 244.247c208.313-2.218 228.283 38.927 143.58 33.671-84.702-5.256-196.605-2.957-253.38 1.642-56.775 4.6-98.513-33.096 109.8-35.313z" fill="url(#l)" transform="translate(11.262)"/><ellipse stroke="url(#m)" stroke-width="8.545" cx="11.798" cy="43.448" rx="11.262" ry="11.264"/></g><g transform="translate(118 29)"><path d="M58.255 0c4.44 0 8.039 3.6 8.039 8.039v168.93H50.216V8.039c0-4.44 3.6-8.039 8.04-8.039zM174.82 12.87a5.627 5.627 0 0 1 5.627 5.628v158.47h-11.254V18.499a5.627 5.627 0 0 1 5.627-5.628z" fill="url(#n)" fill-rule="nonzero"/><g transform="translate(1.982 170.533)"><mask id="r" fill="#fff"><use xlink:href="#o"/></mask><use fill="url(#p)" xlink:href="#o"/><path fill="url(#q)" mask="url(#r)" d="M-6.899 44.817h260.462v25.856H-6.899z"/></g><path d="M124.982 221.932c9.98.036 10.003 8.14 20.028 8.14 10.045 0 10.045-8.14 20.091-8.14 10.047 0 10.047 8.14 20.094 8.14s10.047-8.14 20.093-8.14c10.047 0 10.047 8.14 20.094 8.14 10.024 0 10.046-8.104 20.027-8.14V242H4.555v-20.068c9.98.036 10.003 8.14 20.028 8.14 10.045 0 10.045-8.14 20.091-8.14 10.047 0 10.047 8.14 20.094 8.14s10.047-8.14 20.093-8.14c10.047 0 10.047 8.14 20.094 8.14 10.024 0 10.046-8.104 20.027-8.14z" fill="#D7F3EC"/><g transform="translate(117.743 78.832)"><mask id="v" fill="#fff"><use xlink:href="#s"/></mask><use fill="url(#t)" xlink:href="#s"/><path d="M-30.548 0h95.592c11.109 10.573 16.663 24.248 16.663 41.025 0 16.776-5.554 30.45-16.663 41.024h-95.592c11.108-10.573 16.663-24.248 16.663-41.024 0-16.777-5.555-30.452-16.663-41.025z" fill="url(#u)" mask="url(#v)"/></g><g transform="translate(143.468 22.523)"><mask id="x" fill="#fff"><use xlink:href="#w"/></mask><use fill="url(#t)" xlink:href="#w"/><path d="M-16.078 0H35.95c6.046 5.805 9.07 13.313 9.07 22.523 0 9.21-3.024 16.719-9.07 22.524h-52.027c6.046-5.805 9.069-13.313 9.069-22.524 0-9.21-3.023-16.718-9.069-22.523z" fill="url(#u)" mask="url(#x)"/></g><g transform="translate(.375 74.005)"><mask id="z" fill="#fff"><use xlink:href="#y"/></mask><use fill="url(#t)" xlink:href="#y"/><path d="M-32.156 0h95.84C74.82 11.195 80.39 25.674 80.39 43.438c0 17.763-5.57 32.242-16.706 43.438h-95.84C-21.019 75.68-15.45 61.2-15.45 43.438c0-17.764-5.569-32.243-16.706-43.438z" fill="url(#u)" mask="url(#z)"/></g><g transform="translate(22.884 12.87)"><mask id="B" fill="#fff"><use xlink:href="#A"/></mask><use fill="url(#t)" xlink:href="#A"/><path d="M-19.293 0H36.84c6.523 6.634 9.785 15.215 9.785 25.74 0 10.527-3.262 19.108-9.785 25.742h-56.134C-12.77 44.848-9.51 36.267-9.51 25.74S-12.77 6.634-19.293 0z" fill="url(#u)" mask="url(#B)"/></g><ellipse stroke="#2FB037" stroke-width="4" fill="#EEFFEF" fill-rule="nonzero" cx="37.354" cy="189.839" rx="9.647" ry="9.653"/><ellipse stroke="#2FB037" stroke-width="4" fill="#EEFFEF" fill-rule="nonzero" cx="66.294" cy="189.839" rx="9.647" ry="9.653"/></g></g></svg>