<svg width="479" height="280" xmlns="http://www.w3.org/2000/svg" xmlns:xlink="http://www.w3.org/1999/xlink"><defs><path id="a" d="M.258.283h147.618V98.56H.258z"/><path id="c" d="M0 .243h148.874V188.14H0z"/><linearGradient x1="50%" y1="0%" x2="50%" y2="100%" id="d"><stop stop-color="#05BFBC" offset="0%"/><stop stop-color="#028A86" offset="100%"/></linearGradient><path id="f" d="M.005.004h147.787v263.169H.005z"/><linearGradient x1="50%" y1="0%" x2="50%" y2="100%" id="g"><stop stop-color="#05BEBB" offset="0%"/><stop stop-color="#028A86" offset="100%"/></linearGradient><path id="i" d="M.062.11H78.39V134.4H.062z"/><linearGradient x1="58.726%" y1="261.9%" x2="55.732%" y2="-345.985%" id="k"><stop stop-color="#FCFEFF" offset="0%"/><stop stop-color="#95E0CA" offset="100%"/></linearGradient><linearGradient x1="50%" y1="0%" x2="50%" y2="100%" id="l"><stop stop-color="#FFC73D" offset="0%"/><stop stop-color="#FFEE04" offset="100%"/></linearGradient><linearGradient x1="-28.941%" y1="7.855%" x2="91.259%" y2="50%" id="m"><stop stop-color="#A7F3AC" offset="0%"/><stop stop-color="#29B932" offset="100%"/></linearGradient><linearGradient x1="67.634%" y1="146.03%" x2="67.634%" y2="0%" id="n"><stop stop-color="#FEFFFE" offset="0%"/><stop stop-color="#C7FFCA" offset="100%"/></linearGradient><linearGradient x1="-69.827%" y1="72.736%" x2="100%" y2="45.843%" id="o"><stop stop-color="#FEFFFE" offset="0%"/><stop stop-color="#9DF0A2" offset="100%"/></linearGradient><linearGradient x1="0%" y1="41.023%" x2="50%" y2="58.227%" id="q"><stop stop-color="#FFD618" offset="0%"/><stop stop-color="#FFAD0A" offset="100%"/></linearGradient><path d="M25.414 79.716L3.366 35.706C-2.734 23.529 2.19 8.712 14.368 2.612A24.66 24.66 0 0 1 25.414 0c13.62 0 24.66 11.04 24.66 24.66a24.66 24.66 0 0 1-2.612 11.046l-22.048 44.01z" id="p"/><linearGradient x1="0%" y1="60.996%" x2="127.402%" y2="60.996%" id="r"><stop stop-color="#FFD618" offset="0%"/><stop stop-color="#FFAD0A" offset="100%"/></linearGradient><linearGradient x1="50%" y1="0%" x2="50%" y2="100%" id="t"><stop stop-color="#FFD618" offset="0%"/><stop stop-color="#FFAD0A" offset="100%"/></linearGradient></defs><g fill="none" fill-rule="evenodd"><path fill="#FFF" fill-rule="nonzero" d="M0 0h479v280H0z"/><g transform="translate(62)"><g transform="translate(84.09 164.64)"><mask id="b" fill="#fff"><use xlink:href="#a"/></mask><path d="M133.162 50.495c-5.787 4.547-12.7 7.515-18.58 11.946-5.878 4.43-10.893 11.083-10.312 18.366.642 7.969 7.825 13.68 15.05 17.276-10.947.477-46.597 0-60.58 0H17.23c-3.737 0-9.392 1.072-12.979 0-9.431-2.816.615-9.96 2.04-17.675 1.74-9.391-1.166-20.263 4.788-27.781 3.177-4.014 8.292-6.071 13.356-7.042 8.515-1.63 17.292-.646 25.961-.95 8.666-.3 17.872-2.198 23.955-8.305 6.905-6.934 8.301-17.752 14.688-25.155C98.184.584 114.266.045 128.354.337c4.389.092 9.076.276 12.642 2.805 3.06 2.167 4.787 5.743 5.77 9.334 3.758 13.736-2.33 29.16-13.604 38.019" fill="#1FABA6" mask="url(#b)"/></g><path d="M163.858 222.105a77.078 77.078 0 0 0-6.681 3.88c5.169 1.823 21.926 6.61 41.928.701a58.293 58.293 0 0 0-3.343 2.347c-.274.212-.545.433-.812.65a71.923 71.923 0 0 1-15.666 1.733c-12.68 0-21.851-3.296-24.016-4.152-22.01 15.27-26.687 36.082-26.735 36.318a.93.93 0 0 1-1.1.717.933.933 0 0 1-.716-1.107c.042-.19 3.022-13.549 15.33-26.895-1.823-2.54-8.255-12.499-7.554-25.512.622-.048 1.242-.121 1.864-.188-.758 12.158 5.067 21.572 6.991 24.327a73.74 73.74 0 0 1 11.31-9.502 79.718 79.718 0 0 1 8.352-4.978c4.688-2.422 9.15-5.19 13.345-8.138-.454-3.608-2.51-23.23 3.235-42.252.731-.335 1.48-.65 2.24-.934-5.782 17.77-4.341 36.542-3.752 41.955 21.37-15.517 35.34-35.205 35.508-35.447a.923.923 0 0 1 1.293-.224c.418.297.52.88.223 1.3-.174.249-14.815 20.89-37.126 36.74-.063.045-.13.09-.196.135-4.366 3.091-9.023 5.994-13.922 8.526" fill="#1E6866"/><path d="M179.758 212.8c-.106.095-.23.185-.364.251.123-.083.247-.168.364-.251" fill="#13514F"/><path d="M109.649 262.74H24.367c-2.132-4.304.4-9.807 3.019-13.835 2.616-4.029 5.963-7.845 6.805-12.568 1.729-9.699-7.355-17.436-13.228-25.365-1.87-2.524-3.422-5.2-4.742-7.98-3.07-3.989-6.035-8.06-8.889-12.208-2.98-4.337-5.897-8.892-6.958-14.039-1.064-5.144.09-11.06 4.15-14.422 1.362-1.13 2.886-1.866 4.51-2.362-.012-.586-.024-1.173-.033-1.756-.237-14.583-.47-29.232 1.549-43.678 1.792-12.818 5.713-26.008 14.996-35.076 1.94-1.896 4.191-3.631 6.847-4.205 5.127-1.104 10.163 2.398 13.39 6.51 9.099 11.59 9.081 27.528 10.91 42.12 1.825 14.593 7.905 31.09 22.035 35.418 8.046 2.464 18.628 1.16 22.997 8.317 3.699 6.057-.036 13.653-1.422 20.604-.379 1.887-.565 3.873-.01 5.715 1.333 4.409 6.225 6.494 10.405 8.464 16.175 7.624 36.677 27.525 37.293 46.777.574 17.897-26.67 13.57-38.342 13.57" fill="#21A39F"/><g transform="translate(0 73.92)"><mask id="e" fill="#fff"><use xlink:href="#c"/></mask><path d="M110.296 187.682H24.511c-2.145-4.298.402-9.793 3.037-13.816 2.631-4.023 5.998-7.834 6.845-12.55 1.74-9.686-7.399-17.412-13.306-25.33-1.882-2.52-3.442-5.194-4.77-7.969a282.613 282.613 0 0 1-8.941-12.191c-2.998-4.33-5.932-8.88-7-14.02-1.07-5.137.091-11.044 4.174-14.401 1.37-1.13 2.904-1.864 4.538-2.36-.013-.585-.025-1.17-.034-1.753-.239-14.563-.472-29.192 1.558-43.617 1.803-12.801 5.747-25.972 15.085-35.028 1.95-1.893 4.216-3.626 6.887-4.199 5.157-1.102 10.224 2.395 13.47 6.502 9.152 11.573 9.134 27.49 10.973 42.061 1.836 14.572 7.952 31.047 22.166 35.368 8.094 2.461 18.738 1.16 23.133 8.306 3.72 6.048-.036 13.634-1.43 20.575-.382 1.885-.57 3.868-.01 5.708 1.34 4.402 6.262 6.484 10.466 8.452 16.27 7.613 36.893 27.486 37.513 46.712.578 17.872-26.826 13.55-38.569 13.55" fill="url(#d)" mask="url(#e)"/></g><path d="M90.818 262.304a.897.897 0 0 1-.895.896h-.003a.897.897 0 0 1-.892-.9c.009-6.248-.97-19.364-7.92-34.596-1.33.117-4.631.354-9.25.354-9.964 0-26.054-1.106-41.679-6.927a80.422 80.422 0 0 0-2.205-2.86c22.318 9.226 46.536 8.085 52.299 7.647a94.858 94.858 0 0 0-6.19-10.916c-1.321.114-4.628.353-9.265.353-10.745 0-28.614-1.291-45.342-8.386a52.412 52.412 0 0 1-1.45-2.667c22.67 10.41 48.27 9.411 54.87 8.937a100.043 100.043 0 0 0-5.688-7.49c-11.24-13.46-21.079-33.688-27.265-55.934-3.193-.803-19.772-5.365-29.852-15.36.024-.87.05-1.738.086-2.608 8.729 9.594 24.335 14.543 29.2 15.9-.141-.527-.278-1.054-.416-1.582a194.989 194.989 0 0 1-1.891-8.041c-3.695-.969-16.914-4.83-26.561-12.69.05-.768.122-1.532.185-2.3 8.728 7.553 21.32 11.632 25.955 12.948-4.297-21.37-4.396-41.322-.194-57.015a.896.896 0 1 1 1.728.467c-4.778 17.845-3.886 41.346 2.512 66.181a195.132 195.132 0 0 0 2.778 9.732c2.635-3.507 9.764-13.7 14.694-27.268.206 1.118.432 2.239.695 3.356-5.577 14.06-13.127 24.044-14.705 26.05 4.55 13.936 10.504 26.764 17.247 37.195 3.477-2.263 18.892-13.278 25.248-34.288l1.845.278c-6.458 21.676-22.321 33.102-26.075 35.553a97.693 97.693 0 0 0 6.159 8.27c20.112 24.088 22.252 48.384 22.237 57.71" fill="#1E6866"/><g><g transform="translate(222)"><mask id="h" fill="#fff"><use xlink:href="#f"/></mask><path d="M120.183 141.539c-1.136 4.783-2.148 9.68-1.54 14.538 1.658 13.221 14.8 23.512 16.497 36.73 1.64 12.79-7.675 24.293-14.577 35.562-6.903 11.269-10.547 25.602-.56 34.804H.005C.499 251.446 5 237.799 15.74 231.167c2.64-1.631 5.71-2.73 8.013-4.735 6.643-5.78 4.092-15.818 7.242-23.642 3.438-8.54 13.12-13.384 20.71-19.367 19.938-15.707 26.53-41.143 27.747-64.987 1.218-23.844-1.781-48.059 3.756-71.399 1.68-7.084 4.185-14.105 8.536-20.195 7.669-10.733 20.285-17.618 32.462-24.13 2.413-1.29 4.957-2.615 7.76-2.704 5.17-.162 9.316 3.903 11.588 8.095 4.496 8.28 4.65 17.904 3.887 27.097-3.023 36.33-18.785 70.716-27.26 106.339" fill="url(#g)" mask="url(#h)"/></g><path d="M323.51 84.189a384.224 384.224 0 0 1 2.637-11.369c4.5-.383 24.16-2.95 39.757-18.483.258-1.37.502-2.741.732-4.116-14.63 16.385-34.19 19.628-39.892 20.227 5.911-23.196 13.434-43.416 21.105-57.538a1.161 1.161 0 0 0-.447-1.568 1.132 1.132 0 0 0-1.544.454c-11.925 21.951-23.173 56.834-29.007 95.131-3.151-4.096-10.124-13.881-14.854-25.729a444.81 444.81 0 0 0-.036 5.79c5.555 11.933 12.661 20.908 14.437 23.065-3.161 21.973-4.525 44.97-3.187 67.23 2.569 42.718-9.28 73.297-16.09 87.037h2.532c7.007-14.483 18.364-45.02 15.829-87.178a272.748 272.748 0 0 1-.425-10.841c3.287-.966 15.007-4.727 25.015-11.813a29.484 29.484 0 0 1 .065-2.963c-9.43 7.088-21.118 11.125-25.113 12.37-.308-25.998 2.853-52.828 7.99-77.355 2.897-.188 23.418-2.113 39.78-17.962.36-1.455.699-2.912 1.036-4.37-15.298 16.883-35.81 19.593-40.32 19.98" fill="#1E6866"/><path d="M253.58 262.687c-23.096 1.11-46.476.074-69.61.074-3.976-14.88-7.567-31.57-.747-45.41 5.803-11.78 18.15-19.017 25.671-29.808a43.039 43.039 0 0 0 7.317-18.74c1.248-9.196-.523-18.522-.332-27.8.194-9.277 2.956-19.371 10.71-24.597 6.739-4.54 16.182-4.214 23.147-.02 6.965 4.192 11.464 11.774 12.827 19.724 1.12 6.517.296 13.205.813 19.794a49.083 49.083 0 0 0 7.064 21.708c4.924 8.034 12.14 14.63 16.23 23.107 11.616 24.061-5.197 60.627-33.09 61.968" fill="#1FABA6"/><g transform="translate(208.545 129.92)"><mask id="j" fill="#fff"><use xlink:href="#i"/></mask><path d="M78.389 74.447a35.922 35.922 0 0 0-.994-2.439c-12.058 15.106-39.893 24.884-48.868 27.73a347.561 347.561 0 0 0 3.657-23.013c.014-.037.052-.055.062-.094.046-.172.043-.342.014-.506a332.042 332.042 0 0 0 1.855-20.089c1.234-.543 16.11-7.275 22.397-18.122a50.456 50.456 0 0 1-.945-3.295c-4.324 9.867-17.37 16.868-21.297 18.787.192-3.599.32-7.27.388-10.998 2.678-1.243 13.31-6.519 19.7-14.695-.05-.464-.113-.928-.15-1.393a58.322 58.322 0 0 1-.123-2.271c-5.089 8.059-15.444 13.794-19.378 15.759.116-12.39-.524-25.406-2.277-38.691C32.345.48 31.745.035 31.14.12a1.158 1.158 0 0 0-.986 1.302c3.497 26.502 2.538 51.926-.034 73.378-4.424-1.445-19.104-6.88-28.73-17.958-.285.452-.563.909-.865 1.35-.148.219-.31.427-.463.642 3.375 3.803 7.579 7.297 12.589 10.4 7.525 4.66 14.592 7.104 17.17 7.91a344.66 344.66 0 0 1-3.784 23.356c-.203.06-.351.102-.373.108a1.16 1.16 0 0 0-.802 1.424c.102.372.392.597.724.723-3.421 16.712-7.067 28.171-8.227 31.638.805.004 1.61.006 2.415.007 1.414-4.319 4.948-15.806 8.232-32.063 7.535-2.273 36.817-11.904 50.383-27.89" fill="#1E6866" mask="url(#j)"/></g></g><path d="M166.091 244.247c208.294-2.218 228.263 38.927 143.568 33.671s-196.588-2.957-253.358 1.642c-56.77 4.6-98.504-33.096 109.79-35.313z" fill="url(#k)"/><ellipse stroke="url(#l)" stroke-width="8.545" cx="11.212" cy="44.8" rx="11.212" ry="11.2"/><ellipse stroke="url(#l)" stroke-width="8.545" cx="261.242" cy="29.12" rx="11.212" ry="11.2"/></g><g transform="translate(118 65)"><g transform="translate(18.671 33.129)" fill="url(#m)"><path d="M0 26.916L57.052.154v141.833L0 168.75zM114.103 26.916L57.052.154v141.833l57.051 26.763z"/><g><path d="M114.103 26.916L171.155.154v141.833l-57.052 26.763zM228.206 26.916L171.155.154v141.833l57.051 26.763z"/></g></g><path d="M0 26.916L57.052.154v141.833L0 168.75z" fill="url(#n)" transform="translate(0 33.129)"/><path d="M0 26.916L57.052.154v141.833L0 168.75z" transform="matrix(-1 0 0 1 114.103 33.129)" fill="url(#o)"/><path d="M0 26.916L57.052.154v141.833L0 168.75z" fill="url(#n)" transform="translate(114.103 33.129)"/><path d="M0 26.916L57.052.154v141.833L0 168.75z" transform="matrix(-1 0 0 1 228.206 33.129)" fill="url(#o)"/><g transform="translate(58.089)"><mask id="s" fill="#fff"><use xlink:href="#p"/></mask><use fill="url(#q)" fill-rule="nonzero" xlink:href="#p"/><path fill="url(#r)" fill-rule="nonzero" mask="url(#s)" d="M24.407-12.058h32.217v91.774H24.407z"/><ellipse fill="#FFF" fill-rule="nonzero" cx="25.414" cy="23.294" rx="10.892" ry="10.87"/></g><path d="M199.162 95.763l-26.97-15.012-25.414 8.8V72.47l-19.19 8.282v49.176l-12.447 4.659-16.597-8.8v43.481l-32.157-16.564v-31.835l-7.78-4.917-40.973 18.635v-25.882L58.608 89.55l23.339 12.424V80.75" stroke="#3FBA47" stroke-width="3.692" opacity=".576" stroke-linecap="round" stroke-linejoin="round" stroke-dasharray="7.385"/><ellipse stroke="#FFF" stroke-width="4" fill="url(#t)" fill-rule="nonzero" cx="203.83" cy="97.833" rx="8.817" ry="8.8"/></g></g></svg>