<svg xmlns="http://www.w3.org/2000/svg" width="235" height="141" viewBox="0 0 235 141">
    <defs>
        <linearGradient id="a" x1="-28.941%" x2="91.259%" y1="7.855%" y2="50%">
            <stop offset="0%" stop-color="#A7F3AC"/>
            <stop offset="100%" stop-color="#29B932"/>
        </linearGradient>
        <linearGradient id="b" x1="50%" x2="50%" y1="0%" y2="100%">
            <stop offset="0%" stop-color="#29B932"/>
            <stop offset="100%" stop-color="#A7F3AC"/>
        </linearGradient>
        <linearGradient id="c" x1="50%" x2="50%" y1="0%" y2="100%">
            <stop offset="0%" stop-color="#FFD618"/>
            <stop offset="100%" stop-color="#FFAD0A"/>
        </linearGradient>
        <linearGradient id="d" x1="50%" x2="50%" y1="0%" y2="100%">
            <stop offset="0%" stop-color="#FFC73D"/>
            <stop offset="100%" stop-color="#FFEE04"/>
        </linearGradient>
    </defs>
    <g fill="none" fill-rule="evenodd" transform="translate(-5 3)">
        <path fill="#EDFFEE" d="M114.476 17.815c136.68-7.464 149.783 131.04 94.207 113.348-55.576-17.694-128.999-9.953-166.25 5.529C5.18 152.173-22.205 25.28 114.476 17.815z"/>
        <g transform="translate(55.046 8.762)">
            <path fill="url(#a)" d="M26.392 43.114h6.786v52.783h-6.786C11.816 95.897 0 84.081 0 69.505 0 54.93 11.816 43.114 26.392 43.114z"/>
            <path stroke="url(#b)" stroke-width="8.086" d="M29.941 95.875V40.293C29.941 18.04 48.056 0 70.402 0h1.84c22.346 0 40.461 18.04 40.461 40.293v55.582"/>
            <path fill="url(#a)" d="M116.883 43.114c13.882 0 25.135 11.043 25.135 24.665v3.453c0 13.622-11.253 24.665-25.135 24.665h-8.043V43.114h8.043z"/>
            <path stroke="url(#b)" stroke-linecap="round" stroke-width="6.064" d="M120.776 92.271c0 10.948-8.875 19.823-19.823 19.823H89.014"/>
            <ellipse cx="85.171" cy="112.216" fill="url(#a)" rx="8.295" ry="8.26"/>
        </g>
        <path fill="url(#c)" fill-rule="nonzero" d="M72 94.286c-18.02 0-35.075-18.966-28.376-24.826 3.142-2.75 16.891 4.13 28.497 3.87 13.132-.294 24.28-7.349 28.256-3.87C107.867 76.012 90.02 94.286 72 94.286z" transform="translate(55.046 8.762)"/>
        <path fill="#EDFFEE" d="M35.913 29.366c11.267-3.019-8.076-22.558-21.892-9.783-13.816 12.775-8.594 21.09-2.15 25.059 6.443 3.97 12.775-12.257 24.042-15.276z"/>
        <ellipse cx="177.798" cy="9.31" stroke="url(#d)" stroke-width="4.789" rx="9.358" ry="9.31"/>
        <ellipse cx="57.798" cy="123.214" stroke="url(#d)" stroke-width="4.789" rx="6.055" ry="6.024"/>
        <path stroke="url(#b)" stroke-linecap="round" stroke-width="6.593" d="M64.967 24.782c0-5.228-4.26-9.467-9.517-9.467-5.256 0-9.516 4.239-9.516 9.467 0 5.23 4.26 9.468 9.516 9.468" transform="rotate(103 55.45 24.782)"/>
    </g>
</svg>
