<?xml version="1.0" encoding="UTF-8"?>
<svg width="479px" height="280px" viewBox="0 0 479 280" version="1.1" xmlns="http://www.w3.org/2000/svg" xmlns:xlink="http://www.w3.org/1999/xlink">
    <!-- Generator: Sketch 52 (66869) - http://www.bohemiancoding.com/sketch -->
    <title>Group Copy</title>
    <desc>Created with Sketch.</desc>
    <defs>
        <polygon id="path-1" points="0.248982695 0.272637811 142.677089 0.272637811 142.677089 95.0399139 0.248982695 95.0399139"></polygon>
        <polygon id="path-3" points="5.52763534e-05 0.233856 143.640163 0.233856 143.640163 181.422021 5.52763534e-05 181.422021"></polygon>
        <linearGradient x1="50%" y1="0%" x2="50%" y2="100%" id="linearGradient-5">
            <stop stop-color="#05BFBC" offset="0%"></stop>
            <stop stop-color="#028A86" offset="100%"></stop>
        </linearGradient>
        <polygon id="path-6" points="0.00461245719 0.00376 142.595694 0.00376 142.595694 253.773993 0.00461245719 253.773993"></polygon>
        <linearGradient x1="50%" y1="0%" x2="50%" y2="100%" id="linearGradient-8">
            <stop stop-color="#05BEBB" offset="0%"></stop>
            <stop stop-color="#028A86" offset="100%"></stop>
        </linearGradient>
        <polygon id="path-9" points="0.0601423028 0.105952312 75.6329198 0.105952312 75.6329198 129.6 0.0601423028 129.6"></polygon>
        <linearGradient x1="58.7257497%" y1="261.900311%" x2="55.7317484%" y2="-345.98492%" id="linearGradient-11">
            <stop stop-color="#FCFEFF" offset="0%"></stop>
            <stop stop-color="#95E0CA" offset="100%"></stop>
        </linearGradient>
        <linearGradient x1="0%" y1="100%" x2="50%" y2="29.3124116%" id="linearGradient-12">
            <stop stop-color="#A7F3AC" offset="0%"></stop>
            <stop stop-color="#29B932" offset="100%"></stop>
        </linearGradient>
        <linearGradient x1="-21.7745419%" y1="50%" x2="105.908008%" y2="61.399391%" id="linearGradient-13">
            <stop stop-color="#A7F3AC" offset="0%"></stop>
            <stop stop-color="#29B932" offset="100%"></stop>
        </linearGradient>
        <linearGradient x1="-28.941184%" y1="7.85512695%" x2="91.2590548%" y2="50%" id="linearGradient-14">
            <stop stop-color="#A7F3AC" offset="0%"></stop>
            <stop stop-color="#29B932" offset="100%"></stop>
        </linearGradient>
        <linearGradient x1="22.8438812%" y1="22.8400119%" x2="74.5214737%" y2="74.5176044%" id="linearGradient-15">
            <stop stop-color="#00A6F9" offset="0%"></stop>
            <stop stop-color="#0071E2" offset="100%"></stop>
        </linearGradient>
        <radialGradient cx="50%" cy="50%" fx="50%" fy="50%" r="71.2555672%" gradientTransform="translate(0.500000,0.500000),scale(0.978576,1.000000),rotate(-90.000000),translate(-0.500000,-0.500000)" id="radialGradient-16">
            <stop stop-color="#A9FBB1" offset="0%"></stop>
            <stop stop-color="#2CAE34" offset="100%"></stop>
        </radialGradient>
        <linearGradient x1="9.99190589%" y1="18.5179175%" x2="143.424048%" y2="145.803828%" id="linearGradient-17">
            <stop stop-color="#A7F3AC" offset="0%"></stop>
            <stop stop-color="#29B932" offset="100%"></stop>
        </linearGradient>
        <linearGradient x1="67.633752%" y1="146.029913%" x2="67.633752%" y2="0%" id="linearGradient-18">
            <stop stop-color="#A9FBB1" offset="0%"></stop>
            <stop stop-color="#2CAE34" offset="100%"></stop>
        </linearGradient>
        <linearGradient x1="43.6526895%" y1="135.513781%" x2="38.5305577%" y2="106.731432%" id="linearGradient-19">
            <stop stop-color="#A9FBB1" offset="0%"></stop>
            <stop stop-color="#2CAE34" offset="100%"></stop>
        </linearGradient>
        <linearGradient x1="22.8910014%" y1="43.0832228%" x2="72.3319715%" y2="92.5238471%" id="linearGradient-20">
            <stop stop-color="#FFFFFF" offset="0%"></stop>
            <stop stop-color="#E8EFEE" offset="100%"></stop>
        </linearGradient>
        <linearGradient x1="66.167341%" y1="83.1911342%" x2="17.476118%" y2="21.9566011%" id="linearGradient-21">
            <stop stop-color="#C2CECE" stop-opacity="0" offset="0%"></stop>
            <stop stop-color="#AFBCBC" stop-opacity="0.179" offset="17.9%"></stop>
            <stop stop-color="#5B6A6A" offset="100%"></stop>
        </linearGradient>
        <linearGradient x1="50.0182244%" y1="37.2330049%" x2="50.0182244%" y2="88.2640114%" id="linearGradient-22">
            <stop stop-color="#C2CECE" offset="0%"></stop>
            <stop stop-color="#97AAAA" offset="100%"></stop>
        </linearGradient>
        <radialGradient cx="50%" cy="50%" fx="50%" fy="50%" r="71.2555672%" gradientTransform="translate(0.500000,0.500000),scale(0.992801,1.000000),rotate(-90.000000),translate(-0.500000,-0.500000)" id="radialGradient-23">
            <stop stop-color="#A9FBB1" offset="0%"></stop>
            <stop stop-color="#2CAE34" offset="100%"></stop>
        </radialGradient>
        <linearGradient x1="67.633752%" y1="146.029913%" x2="67.633752%" y2="0%" id="linearGradient-24">
            <stop stop-color="#FEFFFE" offset="0%"></stop>
            <stop stop-color="#E4FFE6" offset="100%"></stop>
        </linearGradient>
        <linearGradient x1="50%" y1="50%" x2="19.1515097%" y2="7.58686439%" id="linearGradient-25">
            <stop stop-color="#FFD618" offset="0%"></stop>
            <stop stop-color="#FFAD0A" offset="100%"></stop>
        </linearGradient>
        <linearGradient x1="81.6777402%" y1="112.320852%" x2="38.1421012%" y2="63.5157986%" id="linearGradient-26">
            <stop stop-color="#FFD618" offset="0%"></stop>
            <stop stop-color="#FFAD0A" offset="100%"></stop>
        </linearGradient>
        <linearGradient x1="66.167341%" y1="83.1911342%" x2="50%" y2="50%" id="linearGradient-27">
            <stop stop-color="#C2CECE" stop-opacity="0" offset="0%"></stop>
            <stop stop-color="#AFBCBC" stop-opacity="0.179" offset="100%"></stop>
        </linearGradient>
        <linearGradient x1="50%" y1="0%" x2="50%" y2="100%" id="linearGradient-28">
            <stop stop-color="#FFC73D" offset="0%"></stop>
            <stop stop-color="#FFEE04" offset="100%"></stop>
        </linearGradient>
    </defs>
    <g id="Page-1" stroke="none" stroke-width="1" fill="none" fill-rule="evenodd">
        <g id="Group-Copy">
            <rect id="Rectangle-50" fill="#FFFFFF" fill-rule="nonzero" x="0" y="0" width="479" height="280"></rect>
            <g id="Group-15-Copy" transform="translate(60.000000, 0.000000)">
                <g id="Group-11" transform="translate(0.500000, 0.000000)">
                    <g id="Group-15" transform="translate(0.000000, 71.280000)">
                        <g id="Group-3" transform="translate(81.134443, 87.480000)">
                            <mask id="mask-2" fill="white">
                                <use xlink:href="#path-1"></use>
                            </mask>
                            <g id="Clip-2"></g>
                            <path d="M128.480226,48.6914039 C122.896326,53.0761647 116.227636,55.9385628 110.553579,60.2110559 C104.88243,64.4835489 100.04305,70.8980311 100.604348,77.9215158 C101.223812,85.6051122 108.154247,91.1119767 115.125398,94.580506 C104.562519,95.0399139 70.1662746,94.580506 56.6747569,94.580506 L16.6248129,94.580506 C13.0185439,94.580506 7.56260786,95.6141737 4.10175292,94.580506 C-4.99825977,91.8642571 4.69504234,84.9760105 6.07065947,77.5364746 C7.74873788,68.4803972 4.94515455,57.9972843 10.6890104,50.747254 C13.7543391,46.87703 18.6896927,44.8929623 23.5756056,43.9566317 C31.7915007,42.3860311 40.2604163,43.3335598 48.6246338,43.0406873 C56.985943,42.7509732 65.8678346,40.9216685 71.7367466,35.0329212 C78.3996194,28.3456656 79.7461537,17.914236 85.9088021,10.7758994 C94.7325281,0.562975613 110.24821,0.0429833474 123.841517,0.324657789 C128.075975,0.413380931 132.598353,0.591401474 136.03885,3.02942153 C138.990755,5.11944015 140.657201,8.56787036 141.6053,12.0306571 C145.231927,25.2759598 139.357199,40.1492891 128.480226,48.6914039" id="Fill-1" fill="#1FABA6" mask="url(#mask-2)"></path>
                        </g>
                        <path d="M158.097374,142.892347 C155.802537,144.076337 153.65566,145.330315 151.650941,146.63387 C156.638078,148.392357 172.806384,153.008749 192.105068,147.310436 C191.00842,148.033661 189.923377,148.774383 188.87895,149.57343 C188.614942,149.777566 188.353836,149.990451 188.09563,150.200419 C182.699426,151.404822 177.596241,151.871419 172.980455,151.871419 C160.746157,151.871419 151.897541,148.692728 149.808688,147.867435 C128.572012,162.59148 124.060669,182.660974 124.01425,182.88844 C123.924313,183.311293 123.552961,183.6 123.138092,183.6 C123.077167,183.6 123.013341,183.594168 122.952416,183.579878 C122.467918,183.477518 122.160392,182.999257 122.261934,182.512246 C122.30255,182.328524 125.177625,169.447536 137.052176,156.578214 C135.294058,154.128581 129.088423,144.525436 129.764399,131.976899 C130.364944,131.930239 130.962588,131.86025 131.563134,131.796093 C130.832035,143.519337 136.451631,152.59756 138.30839,155.254246 C141.363338,152.11055 144.972412,148.9931 149.219747,146.091451 C151.685755,144.408787 154.36645,142.796112 157.27924,141.291337 C161.802188,138.955437 166.107547,136.287087 170.1547,133.443763 C169.716621,129.9647 167.732211,111.044201 173.276376,92.701115 C173.981364,92.3774135 174.703759,92.0741256 175.437759,91.8 C169.858779,108.935767 171.248447,127.036805 171.81708,132.256857 C192.435803,117.293682 205.91471,98.3090251 206.077177,98.0757267 C206.361493,97.6674545 206.924323,97.5741351 207.324686,97.8599257 C207.727951,98.1457162 207.826591,98.7085486 207.539374,99.1139045 C207.371105,99.3530354 193.245234,119.256304 171.718439,134.540265 C171.657514,134.584008 171.593688,134.627752 171.529862,134.671495 C167.317341,137.651882 162.823405,140.451463 158.097374,142.892347" id="Fill-4" fill="#1E6866"></path>
                        <path d="M173.438394,133.92 C173.335624,134.0118 173.216627,134.0982 173.086812,134.16246 C173.205809,134.082 173.324806,134.00046 173.438394,133.92" id="Fill-6" fill="#13514F"></path>
                        <path d="M105.793662,182.076564 L23.5102176,182.076564 C21.453204,177.926196 23.896089,172.61992 26.4231113,168.735168 C28.9472324,164.850417 32.1763665,161.17043 32.9887273,156.61659 C34.6569682,147.26377 25.8921755,139.802855 20.225959,132.157365 C18.4213575,129.723267 16.9242926,127.142085 15.650627,124.462846 C12.6884114,120.615875 9.82745072,116.69046 7.07441802,112.690348 C4.19924107,108.508544 1.38499119,104.116209 0.36083633,99.1528404 C-0.666219814,94.1923561 0.447874987,88.4877992 4.36461452,85.2461804 C5.67889823,84.1560274 7.14985152,83.4465628 8.71654734,82.9678184 C8.70494218,82.4025539 8.69333703,81.8372894 8.68463316,81.2749089 C8.45543137,67.2125128 8.23174202,53.0866686 10.1787968,39.1566481 C11.9079647,26.7961019 15.691245,14.0776509 24.6475227,5.33335532 C26.5188538,3.50489774 28.691919,1.8321763 31.2537567,1.27844782 C36.2004537,0.214250901 41.060112,3.59141782 44.1731946,7.55692124 C52.9524938,18.7324309 52.935086,34.1012802 54.6990695,48.1723283 C56.4601516,62.2433765 62.3265571,78.1515342 75.9597119,82.3246858 C83.7235601,84.7011039 93.9331945,83.4436788 98.1487667,90.3450968 C101.717352,96.1852018 98.1139512,103.510568 96.7764572,110.21299 C96.4108949,112.032796 96.231015,113.947773 96.7677534,115.724319 C98.0530242,119.975338 102.773421,121.985777 106.806212,123.886046 C122.412243,131.237368 142.193228,150.427521 142.787992,168.991845 C143.342138,186.249716 117.056464,182.076564 105.793662,182.076564" id="Fill-8" fill="#21A39F"></path>
                        <g id="Group-12">
                            <mask id="mask-4" fill="white">
                                <use xlink:href="#path-3"></use>
                            </mask>
                            <g id="Clip-11"></g>
                            <path d="M106.418632,180.9792 L23.6491458,180.9792 C21.5799816,176.834592 24.0372965,171.53568 26.5792457,167.65632 C29.1182765,163.77696 32.3664849,160.10208 33.1836442,155.55456 C34.8617393,146.21472 26.0451737,138.76416 20.3454873,131.12928 C18.5302262,128.69856 17.0243183,126.12096 15.7431292,123.44544 C12.763416,119.603808 9.88555593,115.68384 7.11626129,111.68928 C4.22410092,107.51328 1.39322749,103.12704 0.363023037,98.17056 C-0.670099843,93.21696 0.450575823,87.52032 4.39045121,84.2832 C5.71249828,83.19456 7.19214037,82.48608 8.76809053,82.008 C8.75641682,81.44352 8.74474312,80.87904 8.73598784,80.31744 C8.50543217,66.27456 8.28042151,52.16832 10.2389773,38.257632 C11.9783594,25.91424 15.7839871,13.21344 24.7931689,4.48128 C26.6755538,2.65536 28.861455,0.98496 31.4384254,0.432 C36.414342,-0.63072 41.302706,2.74176 44.4341773,6.70176 C53.265335,17.86176 53.2478244,33.20928 55.0222276,47.2608 C56.7937123,61.31232 62.6947701,77.1984 76.4084549,81.36576 C84.2181634,83.73888 94.4881053,82.4832 98.7285785,89.37504 C102.318243,95.20704 98.6935574,102.52224 97.3481629,109.21536 C96.9804412,111.03264 96.7994988,112.94496 97.3394077,114.71904 C98.6322705,118.96416 103.38055,120.971808 107.437162,122.86944 C123.135377,130.21056 143.033207,149.37408 143.631484,167.91264 C144.188904,185.14656 117.747962,180.9792 106.418632,180.9792" id="Fill-10" fill="url(#linearGradient-5)" mask="url(#mask-4)"></path>
                        </g>
                        <path d="M87.6251243,181.655839 C87.6251243,182.132717 87.2364423,182.52 86.7613866,182.52 L86.7585074,182.52 C86.2834517,182.52 85.8976488,182.130116 85.8976488,181.652949 C85.9062862,175.627235 84.9619329,162.979564 78.2564489,148.292012 C76.9723587,148.40444 73.7880456,148.632763 69.3311588,148.632763 C59.7177576,148.632763 44.1935111,147.566291 29.1184083,141.953582 C28.4389346,141.025837 27.7249114,140.109654 26.9907343,139.19636 C48.5237164,148.092302 71.8907016,146.991436 77.4502936,146.569471 C75.7976754,143.141441 73.8254742,139.612544 71.4789866,136.043474 C70.2035339,136.153301 67.0134625,136.384225 62.5393009,136.384225 C52.1715688,136.384225 34.9313633,135.138562 18.7909839,128.297531 C18.2957743,127.453601 17.8351141,126.592331 17.3917288,125.72528 C39.2644477,135.762839 63.9644682,134.800412 70.3330946,134.343765 C68.6833555,131.944925 66.8608688,129.531633 64.8454807,127.121521 C53.9998137,114.141481 44.5073358,94.6357274 38.538908,73.1848897 C35.4582434,72.4103243 19.4618202,68.0114864 9.73613316,58.3727713 C9.75916617,57.5346222 9.7850783,56.6967621 9.81962781,55.8583239 C18.2410709,65.1097563 33.298899,69.8814261 37.9918741,71.1906728 C37.8565552,70.682003 37.7241154,70.1736222 37.5916756,69.6646634 C36.9208393,67.0635109 36.3133437,64.4770982 35.7663098,61.9106277 C32.201952,60.976814 19.4474246,57.2542757 10.1392108,49.6733613 C10.1881559,48.9334779 10.2572549,48.1964847 10.3177166,47.4566013 C18.7391596,54.7398283 30.8890707,58.6733489 35.3603531,59.9421333 C31.2144119,39.3352252 31.1194007,20.0953671 35.1732099,4.96272892 C35.2970123,4.50001279 35.7720681,4.22544669 36.2327282,4.35001299 C36.6933883,4.47400126 36.9669053,4.95116824 36.8402238,5.41330633 C32.2307433,22.6213752 33.0916019,45.2831939 39.2644477,69.2311379 C40.0821194,72.4016538 40.9772397,75.5345975 41.9449139,78.6155181 C44.487182,75.2340199 51.3654136,65.4048426 56.1217295,52.3207565 C56.3203891,53.3987897 56.5392027,54.4800021 56.7925658,55.5577463 C51.4114796,69.1155312 44.1272912,78.7426856 42.6042337,80.676209 C46.9949006,94.1154969 52.7387566,106.485422 59.245581,116.543212 C62.5997626,114.361134 77.4733266,103.739761 83.6058647,83.4799623 C84.1989646,83.5692686 84.7920645,83.6591528 85.3851644,83.7484591 C79.1547361,104.650454 63.8493032,115.667779 60.2273629,118.031649 C62.1506189,120.904478 64.1372158,123.572104 66.1695907,126.005627 C85.5751867,149.233918 87.6395199,172.661632 87.6251243,181.655839" id="Fill-13" fill="#1E6866"></path>
                    </g>
                    <g transform="translate(173.086812, 0.000000)">
                        <g id="Group-3" transform="translate(41.108118, 0.000000)">
                            <mask id="mask-7" fill="white">
                                <use xlink:href="#path-6"></use>
                            </mask>
                            <g id="Clip-2"></g>
                            <path d="M115.957363,136.483927 C114.861115,141.096507 113.884917,145.818127 114.472531,150.50246 C116.071095,163.251993 128.752193,173.17526 130.388668,185.92166 C131.971435,198.254773 122.983462,209.34646 116.323832,220.213173 C109.664202,231.07926 106.147994,244.900393 115.783606,253.773993 L0.00461245719,253.773993 C0.48133834,242.465793 4.82526206,229.305793 15.1878106,222.91066 C17.7341397,221.33804 20.6974854,220.27866 22.9184152,218.345393 C29.328467,212.771507 26.8674367,203.092327 29.9066037,195.54726 C33.2237818,187.313173 42.5655873,182.641373 49.8886528,176.872593 C69.1251267,161.726373 75.484631,137.198327 76.6598598,114.205927 C77.8350886,91.2135267 74.9412456,67.8639267 80.283482,45.3571933 C81.9041605,38.5265267 84.3209617,31.7553933 88.5195614,25.8835267 C95.9184482,15.5341267 108.090912,8.89459333 119.840041,2.61539333 C122.168384,1.37146 124.623096,0.09306 127.327386,0.00814666667 C132.31579,-0.14852 136.315359,3.77159333 138.507856,7.81359333 C142.845461,15.7973267 142.993944,25.07826 142.257847,33.94246 C139.341889,68.97626 124.133417,102.133193 115.957363,136.483927" id="Fill-1" fill="url(#linearGradient-8)" mask="url(#mask-7)"></path>
                        </g>
                        <path d="M139.048544,81.1821865 C139.851629,77.464519 140.702832,73.8088492 141.593148,70.2195833 C145.935459,69.8501139 164.904046,67.3752355 179.953129,52.3966197 C180.201474,51.0757824 180.437402,49.7530569 180.65936,48.4278137 C166.542502,64.2275075 147.67077,67.3547794 142.169929,67.9316426 C147.873171,45.5648981 155.130741,26.0667339 162.532352,12.4486088 C162.82602,11.910455 162.632932,11.2335141 162.101474,10.9367427 C161.576224,10.6443772 160.905072,10.8347767 160.611404,11.3748188 C149.105893,32.5418893 138.252909,66.1787086 132.624481,103.108652 C129.583808,99.1580991 122.856453,89.722468 118.292494,78.2981854 C118.269522,80.1574912 118.256795,82.0180559 118.258036,83.8805089 C123.617941,95.3881897 130.474124,104.042396 132.187704,106.122628 C129.137097,127.31047 127.82149,149.485871 129.112263,170.950971 C131.590745,212.143974 120.159427,241.63103 113.58822,254.88 L116.030693,254.88 C122.791263,240.914435 133.749173,211.467348 131.303286,170.815961 C131.095297,167.355096 130.963985,163.866223 130.893206,160.361299 C134.065192,159.430073 145.373269,155.803671 155.02923,148.970691 C155.001912,148.018379 155.023332,147.065437 155.091938,146.113125 C145.9932,152.948308 134.716477,156.841269 130.861232,158.041258 C130.56446,132.9721 133.613825,107.100117 138.57079,83.4493564 C141.365913,83.2680835 161.165524,81.4119247 176.952501,66.1283551 C177.299563,64.7260079 177.626137,63.3205137 177.951469,61.9150195 C163.191708,78.1952753 143.400478,80.8076818 139.048544,81.1821865" id="Fill-4" fill="#1E6866"></path>
                        <path d="M71.5783055,253.304978 C49.2934792,254.374992 26.7355311,253.377149 4.41577067,253.377149 C0.579363354,239.027676 -2.8854714,222.933862 3.69485639,209.588506 C9.29385151,198.229108 21.2064044,191.250488 28.4631848,180.845316 C32.2043171,175.47956 34.6465333,169.235202 35.5230635,162.77433 C36.7267045,153.906714 35.0181059,144.913582 35.2023043,135.967832 C35.3896785,127.021769 38.0542031,117.287787 45.5364677,112.248683 C52.0373996,107.871357 61.148867,108.185144 67.8689315,112.229542 C74.588996,116.271431 78.9303609,123.582665 80.2451561,131.248478 C81.3249396,137.533629 80.5309811,143.981949 81.0295871,150.336133 C81.6107647,157.710124 83.9640576,164.942598 87.8449266,171.268855 C92.595974,179.015938 99.5574019,185.376712 103.504963,193.550546 C114.712481,216.75226 98.4903217,252.01249 71.5783055,253.304978" id="Fill-6" fill="#1FABA6"></path>
                        <g id="Group-10" transform="translate(28.126607, 125.280000)">
                            <mask id="mask-10" fill="white">
                                <use xlink:href="#path-9"></use>
                            </mask>
                            <g id="Clip-9"></g>
                            <path d="M75.6329198,71.7881268 C75.3412829,70.9925093 75.0230481,70.2082712 74.6741476,69.4366771 C63.0402732,84.0030849 36.1836997,93.4313268 27.5237713,96.1750537 C28.8208048,89.4914868 30.0468066,82.0281073 31.0522032,73.9843727 C31.0656585,73.9492859 31.1022696,73.9315844 31.1125958,73.8942849 C31.1570298,73.7286498 31.1542135,73.564279 31.1260512,73.4059141 C31.8820543,67.2676156 32.4988102,60.785719 32.9156132,54.0351395 C34.1065685,53.5110498 48.4593632,47.0193541 54.5252245,36.560002 C54.1853986,35.5111902 53.881245,34.4519473 53.6133896,33.3822732 C49.4412912,42.8971259 36.8536511,49.6477054 33.0648738,51.4984566 C33.2504325,48.0283376 33.3746598,44.4886771 33.4394333,40.8936995 C36.0234871,39.6950576 46.2824121,34.6074673 52.4462159,26.723678 C52.3989657,26.2757678 52.3376343,25.8288059 52.3029007,25.3799473 C52.2468889,24.6510263 52.2112166,23.9205249 52.18368,23.1897073 C47.2734146,30.961282 37.282032,36.4917249 33.4866835,38.3860976 C33.59902,26.4388741 32.9810125,13.8875883 31.2897058,1.07678634 C31.2074091,0.463240976 30.628516,0.0333482927 30.0449291,0.116165854 C29.4397511,0.198035122 29.0141864,0.760056585 29.0939798,1.37107317 C32.4681445,26.9262966 31.5425413,51.4431395 29.0611237,72.1285639 C24.7923345,70.735522 10.6285405,65.4936761 1.34027842,54.8114751 C1.06585178,55.2476898 0.797683446,55.6883298 0.506985219,56.1141132 C0.363670054,56.3246341 0.20721245,56.5253561 0.0601423028,56.7327161 C3.31571212,60.40008 7.37203195,63.7693639 12.206259,66.7605951 C19.4668305,71.2545541 26.2852529,73.6113776 28.7729288,74.3883454 C27.7296695,82.594238 26.4573563,90.1609815 25.1218342,96.9109288 C24.9259492,96.9678263 24.7826341,97.0092351 24.7613558,97.015241 C24.1737011,97.1777151 23.8257394,97.7934732 23.9878295,98.3880527 C24.0860848,98.7468234 24.3661439,98.9636663 24.6862562,99.0853639 C21.3853137,115.200334 17.8681467,126.250156 16.749162,129.59352 C17.5258175,129.596681 18.3021601,129.59921 19.0785028,129.600158 C20.443126,125.435257 23.852963,114.358882 27.0209166,98.6817073 C34.2918143,96.490519 62.5436767,87.2035727 75.6329198,71.7881268" id="Fill-8" fill="#1E6866" mask="url(#mask-10)"></path>
                        </g>
                    </g>
                    <path d="M160.251548,235.523512 C361.222424,233.385321 380.489054,273.060648 298.77197,267.992343 C217.054887,262.924037 109.095325,265.141421 54.3216663,269.576188 C-0.45199264,274.010955 -40.7193277,237.661703 160.251548,235.523512 Z" id="Rectangle-28" fill="url(#linearGradient-11)"></path>
                </g>
                <g id="compass-copy" transform="translate(118.500000, 179.000000) rotate(-25.000000) translate(-118.500000, -179.000000) translate(54.500000, 98.000000)">
                    <polygon id="Rectangle-23" fill="url(#linearGradient-12)" points="62.7770701 22.68 70.1146497 22.68 70.1146497 37.26 62.7770701 37.26"></polygon>
                    <path d="M65.2229299,27.54 C57.5683337,27.54 51.3630573,21.374961 51.3630573,13.77 C51.3630573,6.165039 57.5683337,0 65.2229299,0 C72.8775262,0 79.0828025,6.165039 79.0828025,13.77 C79.0828025,21.374961 72.8775262,27.54 65.2229299,27.54 Z M65.2229299,21.5530435 C69.8822494,21.5530435 73.6593741,17.800411 73.6593741,13.1713043 C73.6593741,8.54219765 69.8822494,4.78956522 65.2229299,4.78956522 C60.5636105,4.78956522 56.7864857,8.54219765 56.7864857,13.1713043 C56.7864857,17.800411 60.5636105,21.5530435 65.2229299,21.5530435 Z" id="Combined-Shape" fill="url(#linearGradient-13)"></path>
                    <ellipse id="Oval" fill="url(#linearGradient-14)" cx="64" cy="98.415" rx="64" ry="63.585"></ellipse>
                    <ellipse id="Oval" fill="url(#linearGradient-15)" fill-rule="nonzero" cx="64.8152866" cy="98.415" rx="54.2165605" ry="53.055"></ellipse>
                    <ellipse id="Oval" fill="url(#radialGradient-16)" cx="64.8152866" cy="98.415" rx="54.2165605" ry="53.055"></ellipse>
                    <ellipse id="Oval-Copy" fill="url(#linearGradient-17)" cx="64.8152866" cy="98.415" rx="54.2165605" ry="53.055"></ellipse>
                    <path d="M65.2229299,48.6 L65.2229299,48.6 C66.573741,48.6 67.6687898,49.6950488 67.6687898,51.0458599 L67.6687898,59.1141401 C67.6687898,60.4649512 66.573741,61.56 65.2229299,61.56 L65.2229299,61.56 C63.8721188,61.56 62.7770701,60.4649512 62.7770701,59.1141401 L62.7770701,51.0458599 C62.7770701,49.6950488 63.8721188,48.6 65.2229299,48.6 Z" id="Rectangle-3" fill="url(#linearGradient-18)"></path>
                    <path d="M22.8280255,91.5015254 L22.8280255,91.5015254 C24.1729268,91.5015254 25.2631847,92.5917834 25.2631847,93.9366847 L25.2631847,102.083315 C25.2631847,103.428217 24.1729268,104.518475 22.8280255,104.518475 L22.8280255,104.518475 C21.4831242,104.518475 20.3928662,103.428217 20.3928662,102.083315 L20.3928662,93.9366847 C20.3928662,92.5917834 21.4831242,91.5015254 22.8280255,91.5015254 Z" id="Rectangle-3-Copy-2" fill="url(#linearGradient-18)" transform="translate(22.828025, 98.010000) rotate(-90.000000) translate(-22.828025, -98.010000) "></path>
                    <path d="M87.4287912,70.6907939 L56.2547771,89.3824395 L63.4503991,96.5312197 L70.6457873,103.68 L89.4592969,72.7079147 C90.256862,71.3949161 88.750584,69.8983951 87.4287912,70.6907939 Z" id="Shape" fill="url(#linearGradient-18)"></path>
                    <path d="M90.0427772,72.09 L63.5923567,97.4220951 L70.9722185,104.49 L90.2686913,73.8673121 C90.6780707,73.2186782 90.4960444,72.524107 90.0427772,72.09 Z" id="Shape" fill="url(#linearGradient-19)"></path>
                    <path d="M36.9101314,122.50187 L55.7237726,91.53 L62.9192111,98.6789629 L70.1146497,105.827694 L38.9406513,124.519209 C37.6188492,125.311603 36.1125608,123.815092 36.9101314,122.50187 Z" id="Shape" fill="url(#linearGradient-20)" fill-rule="nonzero"></path>
                    <path d="M36.6878981,124.288906 L62.8227638,98.01 L70.1146497,105.342008 L38.521533,124.513355 C37.8523439,124.92008 37.1357619,124.739234 36.6878981,124.288906 Z" id="Shape" fill="url(#linearGradient-21)" fill-rule="nonzero"></path>
                    <ellipse id="Oval" fill="url(#linearGradient-22)" fill-rule="nonzero" cx="64" cy="98.415" rx="5.29936306" ry="5.265"></ellipse>
                    <path d="M65.2229299,132.84 L65.2229299,132.84 C66.573741,132.84 67.6687898,133.935049 67.6687898,135.28586 L67.6687898,144.16414 C67.6687898,145.514951 66.573741,146.61 65.2229299,146.61 L65.2229299,146.61 C63.8721188,146.61 62.7770701,145.514951 62.7770701,144.16414 L62.7770701,135.28586 C62.7770701,133.935049 63.8721188,132.84 65.2229299,132.84 Z" id="Rectangle-3-Copy" fill="url(#linearGradient-18)"></path>
                    <path d="M107.617834,91.5015254 L107.617834,91.5015254 C108.962736,91.5015254 110.052994,92.5917834 110.052994,93.9366847 L110.052994,102.083315 C110.052994,103.428217 108.962736,104.518475 107.617834,104.518475 L107.617834,104.518475 C106.272933,104.518475 105.182675,103.428217 105.182675,102.083315 L105.182675,93.9366847 C105.182675,92.5917834 106.272933,91.5015254 107.617834,91.5015254 Z" id="Rectangle-3-Copy-3" fill="url(#linearGradient-18)" transform="translate(107.617834, 98.010000) rotate(-90.000000) translate(-107.617834, -98.010000) "></path>
                </g>
                <g id="compass" transform="translate(115.500000, 44.000000)">
                    <polygon id="Rectangle-23" fill="url(#linearGradient-12)" points="82.8853503 30.38 92.5732484 30.38 92.5732484 49.91 82.8853503 49.91"></polygon>
                    <path d="M86.1146497,36.89 C76.0081905,36.89 67.8152866,28.6318922 67.8152866,18.445 C67.8152866,8.25810779 76.0081905,0 86.1146497,0 C96.2211088,0 104.414013,8.25810779 104.414013,18.445 C104.414013,28.6318922 96.2211088,36.89 86.1146497,36.89 Z M86.1146497,28.8704348 C92.2664074,28.8704348 97.2533924,23.8437605 97.2533924,17.6430435 C97.2533924,11.4423265 92.2664074,6.41565217 86.1146497,6.41565217 C79.9628919,6.41565217 74.975907,11.4423265 74.975907,17.6430435 C74.975907,23.8437605 79.9628919,28.8704348 86.1146497,28.8704348 Z" id="Combined-Shape" fill="url(#linearGradient-13)"></path>
                    <ellipse id="Oval" fill="url(#linearGradient-14)" cx="84.5" cy="131.8275" rx="84.5" ry="85.1725"></ellipse>
                    <ellipse id="Oval" fill="url(#linearGradient-15)" fill-rule="nonzero" cx="85.5764331" cy="131.8275" rx="71.5828025" ry="71.0675"></ellipse>
                    <ellipse id="Oval" fill="url(#radialGradient-23)" cx="85.5764331" cy="131.8275" rx="71.5828025" ry="71.0675"></ellipse>
                    <ellipse id="Oval-Copy" fill="url(#linearGradient-24)" cx="85.5764331" cy="131.8275" rx="71.5828025" ry="71.0675"></ellipse>
                    <path d="M86.1146497,65.1 L86.1146497,65.1 C87.8981425,65.1 89.343949,66.5458066 89.343949,68.3292994 L89.343949,79.2307006 C89.343949,81.0141934 87.8981425,82.46 86.1146497,82.46 L86.1146497,82.46 C84.3311569,82.46 82.8853503,81.0141934 82.8853503,79.2307006 L82.8853503,68.3292994 C82.8853503,66.5458066 84.3311569,65.1 86.1146497,65.1 Z" id="Rectangle-3" fill="url(#linearGradient-18)"></path>
                    <path d="M30.1401274,122.673535 L30.1401274,122.673535 C31.9378142,122.673535 33.3951274,124.130848 33.3951274,125.928535 L33.3951274,136.641465 C33.3951274,138.439152 31.9378142,139.896465 30.1401274,139.896465 L30.1401274,139.896465 C28.3424405,139.896465 26.8851274,138.439152 26.8851274,136.641465 L26.8851274,125.928535 C26.8851274,124.130848 28.3424405,122.673535 30.1401274,122.673535 Z" id="Rectangle-3-Copy-2" fill="url(#linearGradient-18)" transform="translate(30.140127, 131.285000) rotate(-90.000000) translate(-30.140127, -131.285000) "></path>
                    <path d="M115.433326,94.6907548 L74.2738854,119.728329 L83.7743551,129.304165 L93.2745161,138.88 L118.114228,97.3927006 C119.167263,95.6339309 117.178505,93.6293317 115.433326,94.6907548 Z" id="Shape" fill="url(#linearGradient-25)" fill-rule="nonzero"></path>
                    <path d="M118.884604,96.565 L83.9617834,130.497498 L93.7055072,139.965 L119.182881,98.9457205 C119.72339,98.0768714 119.483059,97.146489 118.884604,96.565 Z" id="Shape" fill="url(#linearGradient-26)" fill-rule="nonzero"></path>
                    <path d="M48.7329078,164.092011 L73.5727935,122.605 L83.073021,132.18108 L92.5732484,141.756849 L51.4138286,166.794249 C49.6686369,167.855665 47.6798654,165.85108 48.7329078,164.092011 Z" id="Shape" fill="url(#linearGradient-20)" fill-rule="nonzero"></path>
                    <path d="M48.4394904,166.485757 L82.9456804,131.285 L92.5732484,141.10627 L50.8604615,166.786408 C49.9769228,167.331218 49.0308106,167.088974 48.4394904,166.485757 Z" id="Shape" fill="url(#linearGradient-27)" fill-rule="nonzero"></path>
                    <ellipse id="Oval" fill="url(#linearGradient-22)" fill-rule="nonzero" cx="84.5" cy="131.8275" rx="6.99681529" ry="7.0525"></ellipse>
                    <path d="M86.1146497,177.94 L86.1146497,177.94 C87.8981425,177.94 89.343949,179.385807 89.343949,181.169299 L89.343949,193.155701 C89.343949,194.939193 87.8981425,196.385 86.1146497,196.385 L86.1146497,196.385 C84.3311569,196.385 82.8853503,194.939193 82.8853503,193.155701 L82.8853503,181.169299 C82.8853503,179.385807 84.3311569,177.94 86.1146497,177.94 Z" id="Rectangle-3-Copy" fill="url(#linearGradient-18)"></path>
                    <path d="M142.089172,122.673535 L142.089172,122.673535 C143.886859,122.673535 145.344172,124.130848 145.344172,125.928535 L145.344172,136.641465 C145.344172,138.439152 143.886859,139.896465 142.089172,139.896465 L142.089172,139.896465 C140.291485,139.896465 138.834172,138.439152 138.834172,136.641465 L138.834172,125.928535 C138.834172,124.130848 140.291485,122.673535 142.089172,122.673535 Z" id="Rectangle-3-Copy-3" fill="url(#linearGradient-18)" transform="translate(142.089172, 131.285000) rotate(-90.000000) translate(-142.089172, -131.285000) "></path>
                </g>
                <circle id="Oval-12-Copy-10" stroke="url(#linearGradient-28)" stroke-width="9" fill-rule="nonzero" cx="137.5" cy="31" r="16"></circle>
                <circle id="Oval-12-Copy-11" stroke="url(#linearGradient-28)" stroke-width="8.54482353" fill-rule="nonzero" cx="39" cy="94.5" r="10.5"></circle>
            </g>
        </g>
    </g>
</svg>