<?xml version="1.0" encoding="UTF-8"?>
<svg width="479px" height="280px" viewBox="0 0 479 280" version="1.1" xmlns="http://www.w3.org/2000/svg" xmlns:xlink="http://www.w3.org/1999/xlink">
    <!-- Generator: Sketch 52 (66869) - http://www.bohemiancoding.com/sketch -->
    <title>Group Copy 3</title>
    <desc>Created with Sketch.</desc>
    <defs>
        <linearGradient x1="101.603015%" y1="126.681784%" x2="27.5925383%" y2="23.4750727%" id="linearGradient-1">
            <stop stop-color="#A9FBB1" offset="0%"></stop>
            <stop stop-color="#2CAE34" offset="100%"></stop>
        </linearGradient>
        <polygon id="path-2" points="0.258078475 0.282735508 147.889336 0.282735508 147.889336 98.5599107 0.258078475 98.5599107"></polygon>
        <polygon id="path-4" points="5.72956966e-05 0.242517333 148.887593 0.242517333 148.887593 188.141355 5.72956966e-05 188.141355"></polygon>
        <linearGradient x1="50%" y1="0%" x2="50%" y2="100%" id="linearGradient-6">
            <stop stop-color="#05BFBC" offset="0%"></stop>
            <stop stop-color="#028A86" offset="100%"></stop>
        </linearGradient>
        <polygon id="path-7" points="0.00478095843 0.00389925926 147.804967 0.00389925926 147.804967 263.17303 0.00478095843 263.17303"></polygon>
        <linearGradient x1="50%" y1="0%" x2="50%" y2="100%" id="linearGradient-9">
            <stop stop-color="#05BEBB" offset="0%"></stop>
            <stop stop-color="#028A86" offset="100%"></stop>
        </linearGradient>
        <polygon id="path-10" points="0.0623394078 0.109876471 78.3959245 0.109876471 78.3959245 134.4 0.0623394078 134.4"></polygon>
        <linearGradient x1="58.7257497%" y1="261.900311%" x2="55.7317484%" y2="-345.98492%" id="linearGradient-12">
            <stop stop-color="#FCFEFF" offset="0%"></stop>
            <stop stop-color="#95E0CA" offset="100%"></stop>
        </linearGradient>
        <linearGradient x1="50%" y1="0%" x2="50%" y2="100%" id="linearGradient-13">
            <stop stop-color="#FFC73D" offset="0%"></stop>
            <stop stop-color="#FFEE04" offset="100%"></stop>
        </linearGradient>
        <linearGradient x1="50%" y1="50%" x2="19.1515097%" y2="7.58686439%" id="linearGradient-14">
            <stop stop-color="#FFD618" offset="0%"></stop>
            <stop stop-color="#FFAD0A" offset="100%"></stop>
        </linearGradient>
        <linearGradient x1="67.633752%" y1="132.217514%" x2="67.633752%" y2="-65.1136283%" id="linearGradient-15">
            <stop stop-color="#A9FBB1" offset="0%"></stop>
            <stop stop-color="#2CAE34" offset="100%"></stop>
        </linearGradient>
        <path d="M199.181474,63.756206 L29.2881374,63.756206 C27.6276329,43.5696419 11.3546883,35.6363802 0.421715441,33.7796594 L0.421715441,26.7431095 L6.43643193,26.7431095 C8.32887997,26.7431095 9.86286989,25.2081499 9.86286989,23.3145057 L9.86286989,0.416707229 L82.1290822,0.416707229 L97.9803114,25.1659517 C98.6128845,26.1470599 99.6988018,26.7431095 100.869062,26.7431095 L143.362164,26.7431095 C144.600953,26.7431095 145.744857,26.0679383 146.351073,24.9866094 L158.185462,3.79256326 L242.054121,3.79256326 C236.814306,42.1454526 204.247331,61.0344221 199.181474,63.756206 Z" id="path-16"></path>
        <linearGradient x1="67.633752%" y1="235.090982%" x2="67.633752%" y2="0%" id="linearGradient-18">
            <stop stop-color="#A9FBB1" offset="0%"></stop>
            <stop stop-color="#2CAE34" offset="100%"></stop>
        </linearGradient>
        <linearGradient x1="67.633752%" y1="146.029913%" x2="67.633752%" y2="0%" id="linearGradient-19">
            <stop stop-color="#FEFFFE" offset="0%"></stop>
            <stop stop-color="#E4FFE6" offset="100%"></stop>
        </linearGradient>
        <path d="M0,0 L95.592281,0 C106.700697,10.5732781 112.254905,24.2481324 112.254905,41.0245629 C112.254905,57.8009934 106.700697,71.4758477 95.592281,82.0491258 L0,82.0491258 C11.1084162,71.4758477 16.6626244,57.8009934 16.6626244,41.0245629 C16.6626244,24.2481324 11.1084162,10.5732781 0,0 Z" id="path-20"></path>
        <linearGradient x1="67.633752%" y1="146.029913%" x2="67.633752%" y2="0%" id="linearGradient-22">
            <stop stop-color="#FEFFFE" offset="0%"></stop>
            <stop stop-color="#C7FFCA" offset="100%"></stop>
        </linearGradient>
        <path d="M0,0 L52.0271994,0 C58.0730829,5.80493701 61.0960246,13.3127002 61.0960246,22.5232894 C61.0960246,31.7338787 58.0730829,39.2416419 52.0271994,45.0465789 L0,45.0465789 C6.04588342,39.2416419 9.06882514,31.7338787 9.06882514,22.5232894 C9.06882514,13.3127002 6.04588342,5.80493701 0,0 Z" id="path-23"></path>
        <path d="M0,0 L95.8395779,0 C106.976732,11.1952357 112.545308,25.6744932 112.545308,43.4377725 C112.545308,61.2010518 106.976732,75.6803093 95.8395779,86.875545 L0,86.875545 C11.1371537,75.6803093 16.7057305,61.2010518 16.7057305,43.4377725 C16.7057305,25.6744932 11.1371537,11.1952357 0,0 Z" id="path-25"></path>
        <path d="M0,0 L56.1346099,0 C62.6577999,6.63421373 65.9193949,15.2145145 65.9193949,25.7409022 C65.9193949,36.26729 62.6577999,44.8475907 56.1346099,51.4818044 L0,51.4818044 C6.52319001,44.8475907 9.78478501,36.26729 9.78478501,25.7409022 C9.78478501,15.2145145 6.52319001,6.63421373 0,0 Z" id="path-27"></path>
    </defs>
    <g id="Page-1" stroke="none" stroke-width="1" fill="none" fill-rule="evenodd">
        <g id="Group-Copy-3">
            <rect id="Rectangle-50" fill="#FFFFFF" fill-rule="nonzero" x="0" y="0" width="479" height="280"></rect>
            <path d="M239.090765,39.1231884 C239.008056,38.6857467 238.95875,38.2364949 238.9456,37.7781854 C237.478135,35.2013592 234.706478,33.4637681 231.528986,33.4637681 C227.590787,33.4637681 224.276003,36.1329219 223.294993,39.7608696 C223.102629,39.0494755 223,38.3012157 223,37.5289855 C223,32.8185569 226.818557,29 231.528986,29 C235.168258,29 238.275164,31.279332 239.5,34.4882922 C240.724836,31.279332 243.831742,29 247.471014,29 C252.181443,29 256,32.8185569 256,37.5289855 C256,38.0738285 255.948912,38.6067391 255.851264,39.1231884 C255.104703,35.174686 251.6366,32.1884058 247.471014,32.1884058 C243.305429,32.1884058 239.837326,35.174686 239.090765,39.1231884 Z" id="Combined-Shape-Copy" fill="url(#linearGradient-1)"></path>
            <g id="Group-15-Copy" transform="translate(51.548100, 0.000000)">
                <g id="Group-11" transform="translate(11.261876, 0.000000)">
                    <g id="Group-15" transform="translate(0.000000, 73.920000)">
                        <g id="Group-3" transform="translate(84.098428, 90.720000)">
                            <mask id="mask-3" fill="white">
                                <use xlink:href="#path-2"></use>
                            </mask>
                            <g id="Clip-2"></g>
                            <path d="M133.173837,50.4947892 C127.385946,55.0419486 120.473638,58.0103614 114.592298,62.441095 C108.713972,66.8718285 103.6978,73.5238841 104.279604,80.8074979 C104.921698,88.7756719 112.105313,94.4864944 119.331133,98.0834877 C108.382374,98.5599107 72.729573,98.0834877 58.7451863,98.0834877 L17.2321468,98.0834877 C13.4941344,98.0834877 7.83888334,99.1554394 4.25159723,98.0834877 C-5.18085506,95.266637 4.86656056,88.1232702 6.29243143,80.4081959 C8.03181301,71.0167083 5.12580981,60.1453318 11.0794989,52.626782 C14.2568095,48.6132163 19.3724603,46.5556646 24.4368643,45.5846551 C32.9529006,43.9558841 41.7312007,44.9385064 50.4009779,44.6347868 C59.0677406,44.3343426 68.2741034,42.4372859 74.3574171,36.3304368 C81.2636965,29.3955051 82.6594221,18.5777263 89.047203,11.1750067 C98.1932753,0.583826562 114.275772,0.0445753233 128.365667,0.336682151 C132.754818,0.428691335 137.442406,0.613305233 141.00859,3.14162233 C144.068334,5.30904904 145.795658,8.88519889 146.778393,12.476237 C150.537507,26.2121064 144.448164,41.6362998 133.173837,50.4947892" id="Fill-1" fill="#1FABA6" mask="url(#mask-3)"></path>
                        </g>
                        <path d="M163.872952,148.184656 C161.49428,149.412497 159.268973,150.71292 157.191018,152.064754 C162.360345,153.88837 179.119307,158.675739 199.123007,152.766378 C197.986296,153.516389 196.861615,154.284545 195.779033,155.113187 C195.505381,155.324883 195.234735,155.545653 194.967097,155.763398 C189.37376,157.012408 184.084146,157.496286 179.299738,157.496286 C166.618499,157.496286 157.446628,154.199867 155.281465,153.344007 C133.268975,168.613387 128.592825,189.426195 128.54471,189.662086 C128.451488,190.1006 128.06657,190.4 127.636545,190.4 C127.573394,190.4 127.507236,190.393952 127.444086,190.379133 C126.941888,190.272982 126.623128,189.777007 126.728379,189.271959 C126.770479,189.081432 129.750586,175.723371 142.058935,162.377407 C140.23659,159.837047 133.804252,149.87823 134.504923,136.864932 C135.127407,136.816544 135.746884,136.743963 136.369368,136.677429 C135.611561,148.834868 141.436451,158.249322 143.36104,161.004403 C146.527591,157.744274 150.268511,154.511363 154.671009,151.502246 C157.227105,149.75726 160.00573,148.084857 163.02493,146.52435 C167.713109,144.101935 172.17575,141.334757 176.370753,138.386124 C175.916671,134.778208 173.859766,115.156949 179.606469,96.1344897 C180.337212,95.7987992 181.085997,95.4842784 181.846811,95.2 C176.064022,112.970425 177.504457,131.741872 178.093862,137.155259 C199.465824,121.637892 213.43714,101.9501 213.605541,101.708161 C213.900244,101.284768 214.483635,101.187992 214.898625,101.484367 C215.316621,101.780743 215.418865,102.364421 215.121155,102.78479 C214.946739,103.032777 200.304825,123.673204 177.991618,139.523238 C177.928468,139.568601 177.86231,139.613965 177.796152,139.659328 C173.42974,142.7501 168.771633,145.653369 163.872952,148.184656" id="Fill-4" fill="#1E6866"></path>
                        <path d="M179.774406,138.88 C179.667882,138.9752 179.544537,139.0648 179.40998,139.13144 C179.533324,139.048 179.656669,138.96344 179.774406,138.88" id="Fill-6" fill="#13514F"></path>
                        <path d="M109.658492,188.82014 L24.3690876,188.82014 C22.2369276,184.516055 24.7690555,179.01325 27.3883944,174.984619 C30.0047261,170.955988 33.3518262,167.139705 34.193864,162.417204 C35.9230487,152.717984 26.8380626,144.980739 20.9648491,137.052082 C19.0943224,134.527832 17.5425671,131.851051 16.2223721,129.072581 C13.1519415,125.08313 10.1864649,121.012328 7.33285906,116.864065 C4.3526468,112.527379 1.43558737,107.972365 0.374018321,102.825168 C-0.690558006,97.6809619 0.464236654,91.7651251 4.52406163,88.4034463 C5.88635845,87.2729173 7.41104828,86.5371762 9.03497827,86.0407006 C9.02294916,85.4545003 9.01092005,84.8683001 9.00189821,84.2850907 C8.76432327,69.7018651 8.53246216,55.0528415 10.5506463,40.6068944 C12.3429838,27.7885501 16.264474,14.5990454 25.5479404,5.530887 C27.4876346,3.63470877 29.7400856,1.90003468 32.3955119,1.32579774 C37.5229205,0.22218612 42.5601107,3.72443329 45.7869198,7.83680722 C54.8869423,19.4262246 54.8688986,35.3642906 56.6973235,49.9564886 C58.5227411,64.5486867 64.6034567,81.0460355 78.7346549,85.3737483 C86.7821302,87.8381818 97.3647406,86.5341854 101.734315,93.6912115 C105.433267,99.7476167 101.698228,107.344293 100.311873,114.294953 C99.9329558,116.182158 99.7465046,118.168061 100.302851,120.010405 C101.635075,124.418869 106.527916,126.503768 110.708032,128.474418 C126.884179,136.098011 147.387799,155.99891 148.004291,175.250802 C148.578681,193.147853 121.332744,188.82014 109.658492,188.82014" id="Fill-8" fill="#21A39F"></path>
                        <g id="Group-12">
                            <mask id="mask-5" fill="white">
                                <use xlink:href="#path-4"></use>
                            </mask>
                            <g id="Clip-11"></g>
                            <path d="M110.306293,187.682133 L24.513091,187.682133 C22.3683366,183.384021 24.9154215,177.888853 27.5502327,173.865813 C30.1820188,169.842773 33.54889,166.031787 34.3959016,161.31584 C36.1353005,151.63008 26.9966501,143.903573 21.088744,135.98592 C19.2071682,133.465173 17.6462468,130.792107 16.3182536,128.017493 C13.2296862,124.033579 10.2466928,119.968427 7.37623094,115.82592 C4.37841481,111.495253 1.44412456,106.94656 0.376284912,101.806507 C-0.694579778,96.66944 0.467036157,90.7618133 4.55084218,87.4048 C5.92118598,86.27584 7.45488202,85.54112 9.08840443,85.0453333 C9.07630426,84.4599467 9.06420409,83.87456 9.05512897,83.29216 C8.81615069,68.7291733 8.58291999,54.10048 10.6130253,39.6745813 C12.4159501,26.8740267 16.3606042,13.7028267 25.6989073,4.64725333 C27.6500591,2.75370667 29.9158151,1.02144 32.5869268,0.448 C37.7446225,-0.65408 42.811567,2.84330667 46.0574366,6.94997333 C55.2112121,18.5233067 55.1930619,34.4392533 57.0322871,49.0112 C58.8684873,63.5831467 64.9851212,80.0576 79.1997912,84.3793067 C87.2948023,86.84032 97.9399233,85.5381333 102.335309,92.6852267 C106.05611,98.7332267 102.299008,106.31936 100.904464,113.260373 C100.523309,115.14496 100.335756,117.128107 100.895389,118.967893 C102.235482,123.37024 107.157225,125.452245 111.362032,127.42016 C127.633731,135.033173 148.258464,154.906453 148.878597,174.131627 C149.45638,192.00384 122.049504,187.682133 110.306293,187.682133" id="Fill-10" fill="url(#linearGradient-6)" mask="url(#mask-5)"></path>
                        </g>
                        <path d="M90.8262255,188.383833 C90.8262255,188.878373 90.4233443,189.28 89.9309339,189.28 L89.9279496,189.28 C89.4355392,189.28 89.0356423,188.875676 89.0356423,188.380836 C89.0445952,182.131947 88.065743,169.015845 81.1152957,153.784309 C79.7842955,153.900901 76.4836537,154.13768 71.863949,154.13768 C61.8993532,154.13768 45.8079785,153.031709 30.1821554,147.211122 C29.4778593,146.249016 28.7377515,145.2989 27.9767537,144.351781 C50.2963738,153.577202 74.5169965,152.435563 80.2796902,151.99797 C78.5666989,148.442976 76.5224497,144.783379 74.0902408,141.082121 C72.7681935,141.196015 69.4615831,141.435493 64.8239725,141.435493 C54.0774887,141.435493 36.207468,140.143694 19.4774519,133.049291 C18.9641513,132.174105 18.4866625,131.280936 18.0270794,130.381772 C40.6988476,140.791092 66.3012037,139.79302 72.9024872,139.31946 C71.1924802,136.831774 69.3034149,134.329101 67.2144011,131.829726 C55.9725227,118.368943 46.1332677,98.1407543 39.9468026,75.8954412 C36.7535959,75.0921882 20.172795,70.5304304 10.0918114,60.5347258 C10.1156858,59.6655341 10.1425446,58.7966421 10.1783562,57.9271507 C18.9074495,67.5212288 34.5153668,72.469627 39.3797846,73.8273644 C39.2395223,73.299855 39.1022442,72.7726452 38.9649662,72.2448361 C38.269623,69.5473446 37.6399346,66.8651389 37.0729165,64.203614 C33.3783464,63.2352145 20.1578735,59.3748045 10.5096141,51.5131154 C10.5603473,50.7458289 10.6319707,49.9815397 10.6946411,49.2142532 C19.4237344,56.7672294 32.0175032,60.8464359 36.6521295,62.1622123 C32.3547297,40.7920853 32.2562476,20.83964 36.4581496,5.14653369 C36.5864748,4.66667993 37.0788852,4.38194472 37.556374,4.51112459 C38.0338629,4.63970501 38.3173719,5.13454484 38.1860625,5.61379916 C33.4081895,23.4592039 34.3004968,46.9603492 40.6988476,71.7952542 C41.5463903,75.0831966 42.4742109,78.3321752 43.4772359,81.527204 C46.1123776,78.0204651 53.2418832,67.8272442 58.1719558,54.2585623 C58.3778728,55.3765226 58.60468,56.4977799 58.8672989,57.6154406 C53.2896321,71.6753656 45.7393394,81.6590814 44.1606419,83.6642167 C48.7117076,97.601256 54.6653969,110.429327 61.4099271,120.859627 C64.8866429,118.596731 80.3035646,107.581975 86.6601352,86.5718128 C87.2749021,86.6644267 87.889669,86.75764 88.5044359,86.8502539 C82.046399,108.526396 66.1818315,119.951771 62.4275753,122.403192 C64.4210913,125.382421 66.480262,128.148849 68.5868832,130.672502 C88.7014,154.761101 90.841147,179.056507 90.8262255,188.383833" id="Fill-13" fill="#1E6866"></path>
                    </g>
                    <g transform="translate(179.409980, 0.000000)">
                        <g id="Group-3" transform="translate(42.609870, 0.000000)">
                            <mask id="mask-8" fill="white">
                                <use xlink:href="#path-7"></use>
                            </mask>
                            <g id="Clip-2"></g>
                            <path d="M120.193491,141.538887 C119.057195,146.322303 118.045335,151.218798 118.654416,156.076625 C120.311378,169.298363 133.455739,179.589159 135.151997,192.807647 C136.792586,205.597543 127.476266,217.100033 120.573348,228.369217 C113.67043,239.637751 110.025768,253.970778 120.013387,263.17303 L0.00478095843,263.17303 C0.498922483,251.446008 5.00153744,237.7986 15.7426482,231.16661 C18.3819992,229.535745 21.4536013,228.437129 23.7556655,226.43226 C30.3998879,220.651933 27.8489518,210.614265 30.999145,202.789751 C34.4375055,194.250698 44.1205836,189.405869 51.7111738,183.42343 C71.6503901,167.716239 78.2422184,142.279746 79.4603804,118.435776 C80.6785425,94.5918054 77.6789822,70.3774054 83.21638,47.0370894 C84.8962647,39.9534351 87.4013559,32.931519 91.7533379,26.8421758 C99.4225192,16.1094647 112.039665,9.22402272 124.21801,2.71225975 C126.631412,1.42225481 129.175799,0.0965066667 131.978881,0.00844839506 C137.149521,-0.154020741 141.295201,3.91128198 143.567794,8.10298568 C148.063859,16.3824128 148.217767,26.0070844 147.454778,35.1995881 C144.432296,71.5309363 128.668231,105.915904 120.193491,141.538887" id="Fill-1" fill="url(#linearGradient-9)" mask="url(#mask-8)"></path>
                        </g>
                        <path d="M144.128234,84.1889342 C144.960657,80.3335752 145.842955,76.5425103 146.765797,72.8203086 C151.266741,72.4371551 170.928283,69.8706146 186.527136,54.3372353 C186.784553,52.9674781 187.0291,51.5957627 187.259167,50.2214364 C172.626595,66.6063041 153.065445,69.8494009 147.363649,70.4476293 C153.27524,47.2524869 160.797942,27.0321685 168.469947,12.9096684 C168.774343,12.3515829 168.574201,11.6495701 168.023328,11.3418072 C167.47889,11.0386134 166.783219,11.2360647 166.478823,11.7961084 C154.552996,33.7471445 143.303533,68.6297719 137.469488,106.927491 C134.317734,102.830621 127.344618,93.0455224 122.613929,81.1981182 C122.590118,83.1262872 122.576925,85.0557617 122.578212,86.9871944 C128.133924,98.9210856 135.240575,107.895818 137.016756,110.053096 C133.854704,132.025672 132.491035,155.022384 133.828963,177.282489 C136.397988,220.001159 124.549064,250.580327 117.737799,264.32 L120.2695,264.32 C127.277046,249.837192 138.635268,219.299472 136.100028,177.142478 C135.884441,173.553433 135.748331,169.935342 135.674967,166.300607 C138.962831,165.33489 150.684012,161.574177 160.692723,154.488124 C160.664407,153.500541 160.686609,152.512305 160.757721,151.524722 C151.32659,158.613061 139.637908,162.650205 135.641825,163.894638 C135.334211,137.896993 138.494975,111.066788 143.633027,86.5400733 C146.53026,86.3520866 167.053186,84.4271812 183.41689,68.5775534 C183.776631,67.1232675 184.115135,65.6657179 184.452351,64.2081683 C169.15339,81.0913966 148.639152,83.8005589 144.128234,84.1889342" id="Fill-4" fill="#1E6866"></path>
                        <path d="M74.1931879,262.686644 C51.0942574,263.796288 27.7122275,262.761488 4.57708661,262.761488 C0.600528525,247.880553 -2.99088279,231.190671 3.82983604,217.351044 C9.63337238,205.570927 21.9811119,198.33384 29.5029954,187.543291 C33.3807979,181.978803 35.9122326,175.503172 36.820784,168.803009 C38.0683962,159.606962 36.2973794,150.280752 36.4883069,141.003678 C36.6825262,131.726279 39.4443906,121.631779 47.1999956,116.406042 C53.9384181,111.866592 63.3827436,112.192001 70.3483039,116.386192 C77.3138643,120.57778 81.8138269,128.159801 83.176654,136.109533 C84.2958839,142.627467 83.4729207,149.314614 83.9897416,155.904138 C84.5921506,163.55124 87.0314135,171.051583 91.0540575,177.612145 C95.9786692,185.646158 103.19441,192.242516 107.286183,200.719085 C118.903131,224.780122 102.088348,261.346286 74.1931879,262.686644" id="Fill-6" fill="#1FABA6"></path>
                        <g id="Group-10" transform="translate(29.154122, 129.920000)">
                            <mask id="mask-11" fill="white">
                                <use xlink:href="#path-10"></use>
                            </mask>
                            <g id="Clip-9"></g>
                            <path d="M78.3959245,74.4469463 C78.0936335,73.6218615 77.7637731,72.8085776 77.4021267,72.0084059 C65.3432461,87.1143102 37.5055544,96.8917463 28.5292635,99.7370927 C29.8736799,92.8059863 31.1444697,85.0661854 32.1865952,76.7245346 C32.2005421,76.6881483 32.2384907,76.6697912 32.2491941,76.6311102 C32.2952513,76.4593405 32.2923322,76.288882 32.263141,76.1246517 C33.0467623,69.7590088 33.6860493,63.037042 34.118079,56.036441 C35.3525419,55.4929405 50.2296697,48.7608117 56.5171277,37.9140761 C56.1648873,36.8264195 55.8496225,35.7279454 55.5719818,34.6186537 C51.2474692,44.4859083 38.1999803,51.4865093 34.2727923,53.4058068 C34.4651298,49.8071649 34.5938954,46.1364059 34.6610351,42.408281 C37.3394889,41.1652449 47.9731907,35.8892254 54.3621692,27.7134439 C54.3131928,27.2489444 54.2496209,26.7854283 54.2136184,26.3199454 C54.1555604,25.5640273 54.1185849,24.8064702 54.0900424,24.0485854 C49.0003963,32.1079961 38.6440108,37.8432702 34.7100114,39.8078049 C34.8264518,27.4180917 34.1858674,14.4019434 32.4327743,1.11666732 C32.3474711,0.480398049 31.74743,0.0345834146 31.1425237,0.120468293 C30.5152374,0.205369756 30.0741261,0.788206829 30.1568345,1.42185366 C33.6542634,27.9235668 32.6948463,53.348441 30.1227781,74.7999922 C25.6980424,73.3553561 11.0168199,67.9193678 1.38924116,56.8415298 C1.10478923,57.2939005 0.826824237,57.7508605 0.525506288,58.1924137 C0.376955566,58.4107317 0.214782289,58.6188878 0.0623394078,58.8339278 C3.43684096,62.63712 7.64134535,66.1311922 12.6521753,69.2332098 C20.1779884,73.8936117 27.2454998,76.3377249 29.8240549,77.1434693 C28.7426835,85.6532839 27.4238904,93.5002771 26.0395793,100.500222 C25.8365384,100.559227 25.6879877,100.60217 25.6659321,100.608398 C25.0568093,100.77689 24.6961359,101.415454 24.8641474,102.032055 C24.9659922,102.404113 25.2562824,102.628987 25.5880889,102.755192 C22.1665571,119.467013 18.5209018,130.926088 17.3610386,134.39328 C18.1660667,134.396558 18.9707705,134.39918 19.7754743,134.400164 C21.1899496,130.081007 24.724354,118.594396 28.0080386,102.336585 C35.5445551,100.064242 64.8285081,90.4333346 78.3959245,74.4469463" id="Fill-8" fill="#1E6866" mask="url(#mask-11)"></path>
                        </g>
                    </g>
                    <path d="M166.105821,244.246605 C374.41852,242.029221 394.388993,283.174005 309.68664,277.917985 C224.984287,272.661965 113.080771,274.961474 56.3061331,279.560491 C-0.468504732,284.159509 -42.206877,246.463989 166.105821,244.246605 Z" id="Rectangle-28" fill="url(#linearGradient-12)"></path>
                </g>
                <ellipse id="Oval-12-Copy-11" stroke="url(#linearGradient-13)" stroke-width="8.54482353" fill-rule="nonzero" cx="11.7981563" cy="43.4482759" rx="11.2618765" ry="11.2643678"></ellipse>
            </g>
            <g id="Group-30" transform="translate(118.000000, 29.000000)">
                <path d="M58.255075,0 L58.255075,0 C62.6948649,-8.15576159e-16 66.2940257,3.59916078 66.2940257,8.0389506 L66.2940257,176.968703 L50.2161244,176.968703 L50.2161244,8.0389506 C50.2161244,3.59916078 53.8152852,8.15576159e-16 58.255075,0 Z" id="Rectangle-22" fill="url(#linearGradient-14)" fill-rule="nonzero"></path>
                <path d="M174.819859,12.8704511 L174.819859,12.8704511 C177.927712,12.8704511 180.447124,15.3898637 180.447124,18.4977165 L180.447124,176.968703 L169.192593,176.968703 L169.192593,18.4977165 C169.192593,15.3898637 171.712006,12.8704511 174.819859,12.8704511 Z" id="Rectangle-22-Copy" fill="url(#linearGradient-14)" fill-rule="nonzero"></path>
                <g id="Rectangle-20" transform="translate(1.982421, 170.533477)">
                    <mask id="mask-17" fill="white">
                        <use xlink:href="#path-16"></use>
                    </mask>
                    <use id="Mask" fill="url(#linearGradient-15)" xlink:href="#path-16"></use>
                    <rect fill="url(#linearGradient-18)" mask="url(#mask-17)" x="-6.89944887" y="44.8167494" width="260.462" height="25.855817"></rect>
                </g>
                <path d="M124.982421,221.931707 C134.961323,221.968219 134.985379,230.071893 145.010206,230.071893 C155.054715,230.071893 155.054715,221.931707 165.101411,221.931707 C175.148107,221.931707 175.148107,230.071893 185.194804,230.071893 C195.2415,230.071893 195.2415,221.931707 205.288196,221.931707 C215.334892,221.931707 215.334892,230.071893 225.381588,230.071893 C235.406415,230.071893 235.428284,221.968219 245.409373,221.931707 L245.409373,242 L124.982421,242 L4.55546852,242 L4.55546852,221.931707 C14.5343703,221.968219 14.5584264,230.071893 24.5832534,230.071893 C34.6277627,230.071893 34.6277627,221.931707 44.6744588,221.931707 C54.721155,221.931707 54.721155,230.071893 64.7678512,230.071893 C74.8145474,230.071893 74.8145474,221.931707 84.8612436,221.931707 C94.9079398,221.931707 94.9079398,230.071893 104.954636,230.071893 C114.979463,230.071893 115.001332,221.968219 124.982421,221.931707 Z" id="Combined-Shape-Copy-3" fill="#D7F3EC"></path>
                <g id="Rectangle-23-Copy-5" transform="translate(117.743310, 78.831513)">
                    <mask id="mask-21" fill="white">
                        <use xlink:href="#path-20"></use>
                    </mask>
                    <use id="Mask" fill="url(#linearGradient-19)" xlink:href="#path-20"></use>
                    <path d="M-30.5480123,0 L65.0442687,0 C76.1526849,10.5732781 81.706893,24.2481324 81.706893,41.0245629 C81.706893,57.8009934 76.1526849,71.4758477 65.0442687,82.0491258 L-30.5480123,82.0491258 C-19.4395961,71.4758477 -13.8853879,57.8009934 -13.8853879,41.0245629 C-13.8853879,24.2481324 -19.4395961,10.5732781 -30.5480123,0 Z" fill="url(#linearGradient-22)" mask="url(#mask-21)"></path>
                </g>
                <g id="Rectangle-23-Copy-8" transform="translate(143.467951, 22.523289)">
                    <mask id="mask-24" fill="white">
                        <use xlink:href="#path-23"></use>
                    </mask>
                    <use id="Mask" fill="url(#linearGradient-19)" xlink:href="#path-23"></use>
                    <path d="M-16.0779012,0 L35.9492982,0 C41.9951817,5.80493701 45.0181234,13.3127002 45.0181234,22.5232894 C45.0181234,31.7338787 41.9951817,39.2416419 35.9492982,45.0465789 L-16.0779012,45.0465789 C-10.0320178,39.2416419 -7.00907607,31.7338787 -7.00907607,22.5232894 C-7.00907607,13.3127002 -10.0320178,5.80493701 -16.0779012,0 Z" id="Rectangle-23-Copy-5" fill="url(#linearGradient-22)" mask="url(#mask-24)"></path>
                </g>
                <g id="Rectangle-23-Copy-6" transform="translate(0.374631, 74.005094)">
                    <mask id="mask-26" fill="white">
                        <use xlink:href="#path-25"></use>
                    </mask>
                    <use id="Mask" fill="url(#linearGradient-19)" xlink:href="#path-25"></use>
                    <path d="M-32.1558024,0 L63.6837755,0 C74.8209292,11.1952357 80.389506,25.6744932 80.389506,43.4377725 C80.389506,61.2010518 74.8209292,75.6803093 63.6837755,86.875545 L-32.1558024,86.875545 C-21.0186487,75.6803093 -15.4500719,61.2010518 -15.4500719,43.4377725 C-15.4500719,25.6744932 -21.0186487,11.1952357 -32.1558024,0 Z" id="Rectangle-23-Copy-5" fill="url(#linearGradient-22)" mask="url(#mask-26)"></path>
                </g>
                <g id="Rectangle-23-Copy-7" transform="translate(22.883692, 12.870451)">
                    <mask id="mask-28" fill="white">
                        <use xlink:href="#path-27"></use>
                    </mask>
                    <use id="Mask" fill="url(#linearGradient-19)" xlink:href="#path-27"></use>
                    <path d="M-19.2934814,0 L36.8411285,0 C43.3643185,6.63421373 46.6259135,15.2145145 46.6259135,25.7409022 C46.6259135,36.26729 43.3643185,44.8475907 36.8411285,51.4818044 L-19.2934814,51.4818044 C-12.7702914,44.8475907 -9.50869643,36.26729 -9.50869643,25.7409022 C-9.50869643,15.2145145 -12.7702914,6.63421373 -19.2934814,0 Z" id="Rectangle-23-Copy-5" fill="url(#linearGradient-22)" mask="url(#mask-28)"></path>
                </g>
                <ellipse id="Oval-4" stroke="#2FB037" stroke-width="4" fill="#EEFFEF" fill-rule="nonzero" cx="37.3538035" cy="189.839154" rx="9.64674072" ry="9.65283833"></ellipse>
                <ellipse id="Oval-4-Copy" stroke="#2FB037" stroke-width="4" fill="#EEFFEF" fill-rule="nonzero" cx="66.2940257" cy="189.839154" rx="9.64674072" ry="9.65283833"></ellipse>
            </g>
        </g>
    </g>
</svg>