<svg xmlns="http://www.w3.org/2000/svg" xmlns:xlink="http://www.w3.org/1999/xlink" width="234" height="147" viewBox="0 0 234 147">
    <defs>
        <linearGradient id="a" x1="50%" x2="50%" y1="0%" y2="100%">
            <stop offset="0%" stop-color="#FFC73D"/>
            <stop offset="100%" stop-color="#FFEE04"/>
        </linearGradient>
        <linearGradient id="b" x1="50%" x2="50%" y1="0%" y2="100%">
            <stop offset="0%" stop-color="#29B932"/>
            <stop offset="100%" stop-color="#A7F3AC"/>
        </linearGradient>
        <linearGradient id="d" x1="131.699%" x2="0%" y1="16.892%" y2="82.848%">
            <stop offset="0%" stop-color="#FEFFFE"/>
            <stop offset="100%" stop-color="#9DF0A2"/>
        </linearGradient>
        <ellipse id="c" cx="48.5" cy="48.195" rx="48.5" ry="48.195"/>
        <linearGradient id="e" x1="-13.706%" y1="60.535%" y2="60.535%">
            <stop offset="0%" stop-color="#FEFFFE"/>
            <stop offset="100%" stop-color="#9DF0A2"/>
        </linearGradient>
        <linearGradient id="g" x1="76.387%" x2="0%" y1="100%" y2="29.562%">
            <stop offset="0%" stop-color="#FEFFFE"/>
            <stop offset="100%" stop-color="#9DF0A2"/>
        </linearGradient>
        <linearGradient id="h" x1="-69.827%" x2="75.885%" y1="72.736%" y2="50%">
            <stop offset="0%" stop-color="#FEFFFE"/>
            <stop offset="100%" stop-color="#9DF0A2"/>
        </linearGradient>
        <linearGradient id="i" x1="50%" x2="50%" y1="146.498%" y2="0%">
            <stop offset="0%" stop-color="#A7F3AC"/>
            <stop offset="100%" stop-color="#29B932"/>
        </linearGradient>
        <linearGradient id="k" x1="144.996%" x2="-45.653%" y1="56.399%" y2="83.3%">
            <stop offset="0%" stop-color="#FEFFFE"/>
            <stop offset="100%" stop-color="#71EE79"/>
        </linearGradient>
        <path id="j" d="M23.745 0C39.575 22.51 47.49 43.192 47.49 62.05c0 28.287-11.627 48.4-23.375 48.546C12.12 110.744 0 90.336 0 62.05 0 43.192 7.915 22.51 23.745 0z"/>
        <linearGradient id="l" x1="63.832%" x2="63.832%" y1="132.455%" y2="7.855%">
            <stop offset="0%" stop-color="#A7F3AC"/>
            <stop offset="100%" stop-color="#29B932"/>
        </linearGradient>
        <linearGradient id="n" x1="50%" x2="50%" y1="0%" y2="100%">
            <stop offset="0%" stop-color="#FFD618"/>
            <stop offset="100%" stop-color="#FFAD0A"/>
        </linearGradient>
        <linearGradient id="o" x1="-28.941%" x2="91.259%" y1="7.855%" y2="50%">
            <stop offset="0%" stop-color="#A7F3AC"/>
            <stop offset="100%" stop-color="#29B932"/>
        </linearGradient>
    </defs>
    <g fill="none" fill-rule="evenodd" transform="translate(-5 1)">
        <path fill="#EDFFEE" d="M112.886 24.361c137.322-7.498 150.487 131.632 94.65 113.859-55.836-17.773-129.604-9.997-167.03 5.554-37.427 15.551-64.941-111.915 72.38-119.413z"/>
        <path fill="#EDFFEE" d="M36.166 35.963c11.32-3.034-8.11-22.661-21.992-9.826C.294 38.97 5.54 47.324 12.012 51.31c6.472 3.987 12.835-12.315 24.154-15.348z"/>
        <ellipse cx="52.402" cy="32.213" fill-rule="nonzero" stroke="url(#a)" stroke-width="4.82" rx="9.402" ry="9.352"/>
        <path fill-rule="nonzero" stroke="url(#b)" stroke-linecap="round" stroke-width="6.637" d="M225.284 14.353c0-6.581-5.363-11.916-11.98-11.916-6.615 0-11.979 5.335-11.979 11.916 0 6.58 5.364 11.915 11.98 11.915" transform="rotate(103 213.305 14.353)"/>
        <g transform="rotate(-10 246.642 -209.077)">
            <mask id="f" fill="#fff">
                <use xlink:href="#c"/>
            </mask>
            <use fill="url(#d)" xlink:href="#c"/>
            <ellipse cx="18.5" cy="45.214" fill="url(#e)" mask="url(#f)" rx="27.5" ry="27.327"/>
            <ellipse cx="79" cy="79.497" fill="url(#g)" mask="url(#f)" rx="25" ry="24.843"/>
            <ellipse cx="67" cy="28.818" fill="url(#h)" mask="url(#f)" rx="14" ry="13.912"/>
        </g>
        <g transform="rotate(44 80.444 217.82)">
            <path fill="url(#i)" d="M23.745 0c.915 0 1.657.742 1.657 1.657v15.898a1.657 1.657 0 1 1-3.313 0V1.657C22.088.742 22.83 0 23.744 0z"/>
            <g transform="translate(0 7.136)">
                <mask id="m" fill="#fff">
                    <use xlink:href="#j"/>
                </mask>
                <use fill="url(#k)" xlink:href="#j"/>
                <ellipse cx="23.745" cy="16.474" fill="url(#l)" mask="url(#m)" rx="28.207" ry="19.008"/>
            </g>
            <ellipse cx="24.021" cy="74.378" fill="url(#n)" fill-rule="nonzero" rx="11.873" ry="11.802"/>
        </g>
        <g fill="url(#o)" transform="rotate(44 -57.152 153.113)">
            <path d="M18.028.621V.59h23.128c10.388 0 18.81 8.421 18.81 18.81a4.355 4.355 0 0 1-7.932 2.485c-2.335-3.36-4.94-6.197-7.815-8.51-2.67-2.147-6.04-4.114-10.107-5.9h-7.946c-4.068 1.786-7.436 3.753-10.107 5.9-2.875 2.313-5.48 5.15-7.815 8.51A4.355 4.355 0 0 1 .312 19.4C.312 9.379 8.15 1.188 18.028.621z"/>
            <path d="M35.514 8.223l2.143 4.378a7.918 7.918 0 0 1-7.11 11.4 7.918 7.918 0 0 1-7.111-11.4l2.144-4.378a5.53 5.53 0 0 1 9.934 0z"/>
        </g>
    </g>
</svg>
