<?xml version="1.0" encoding="UTF-8"?>
<svg width="410px" height="89px" viewBox="0 0 410 89" version="1.1" xmlns="http://www.w3.org/2000/svg" xmlns:xlink="http://www.w3.org/1999/xlink">
    <!-- Generator: Sketch 52 (66869) - http://www.bohemiancoding.com/sketch -->
    <title>Group 60</title>
    <desc>Created with Sketch.</desc>
    <g id="Page-1" stroke="none" stroke-width="1" fill="none" fill-rule="evenodd">
        <g id="Tokopedia_Logo" transform="translate(-45.000000, -206.000000)" fill="#41AC47">
            <g id="Group-60" transform="translate(45.000000, 206.000000)">
                <path d="M219.135,62.408 C214.682,66.926 209.353,69.202 203.178,69.202 C198.185,69.202 193.939,68.181 189.607,65.665 L189.607,55.303 C193.093,57.665 197.468,59.916 201.789,59.916 C210.795,59.916 216.16,53.717 216.16,44.931 C216.16,36.136 210.61,29.752 201.602,29.752 C197.573,29.752 194.314,31.199 191.764,34.098 C189.031,37.242 187.62,41.733 187.62,47.67 L187.62,88.591 L186.941,88.591 C181.978,88.591 177.952,84.566 177.952,79.603 L177.952,46.136 C177.952,31.935 186.636,20.469 201.559,20.469 C208.923,20.469 214.908,22.987 219.445,28.048 C223.711,32.775 225.827,38.771 225.827,45.98 C225.827,52.398 223.598,57.884 219.135,62.408 Z M323.806,62.064 C319.368,66.826 313.659,69.202 306.732,69.202 C299.428,69.202 293.471,66.68 288.94,61.62 C284.678,56.834 282.558,50.836 282.558,43.688 C282.558,31.038 292.326,20.469 305.169,20.469 C310.128,20.469 314.431,21.511 318.78,23.898 L318.78,34.365 C315.291,32.003 310.915,29.752 306.598,29.752 C297.592,29.752 292.227,35.95 292.227,44.738 C292.227,53.413 297.902,59.916 306.782,59.916 C310.802,59.916 314.116,58.406 316.765,55.373 C319.396,52.355 320.765,47.924 320.765,41.969 L320.765,9.399 C320.765,4.436 324.789,0.41 329.757,0.41 L330.432,0.41 L330.432,43.496 C330.432,51.086 328.238,57.296 323.806,62.064 Z M351.104,15.868 C350.088,17.004 348.634,17.528 346.857,17.528 C343.541,17.528 341.168,15.078 341.168,11.788 C341.168,8.417 343.499,6.142 346.857,6.142 C350.094,6.142 352.552,8.54 352.552,11.788 C352.552,13.394 352.083,14.77 351.104,15.868 Z M400.222,41.969 C400.222,38.159 398.781,35.143 395.88,32.855 C393.271,30.799 390.008,29.752 386.048,29.752 C377.299,29.752 371.684,36.591 371.684,45.023 C371.684,53.144 377.633,59.916 385.959,59.916 C391.743,59.916 394.841,56.533 398.142,52.324 L398.142,64.468 C396.458,65.727 394.524,67.1 392.548,67.906 C390.465,68.777 387.981,69.202 385.106,69.202 C371.192,69.202 362.015,57.676 362.015,44.357 C362.015,37.518 364.139,31.866 368.415,27.456 C372.955,22.786 378.904,20.469 386.191,20.469 C400.007,20.469 409.891,28.4 409.891,42.732 L409.891,68.246 L409.211,68.246 C404.247,68.246 400.222,64.222 400.222,59.258 L400.222,41.969 Z M267.888,39.233 C266.663,35.453 265.134,33.595 261.608,31.629 C253.234,26.946 244.99,30.93 241.153,39.195 L267.888,39.233 Z M260.512,69.059 C254.336,70.369 248.277,69.359 242.367,66.058 C236.602,62.835 232.736,58.044 230.803,51.719 C226.891,38.921 234.908,24.659 247.798,21.203 C254.188,19.492 260.318,20.268 266.139,23.523 C275.81,28.926 279.333,37.287 278.719,48.061 L239.771,47.98 C240.343,52.375 243.069,55.814 246.896,57.952 C250.777,60.122 254.348,60.64 257.662,59.612 C261.336,58.457 264.318,55.458 266.745,52.664 L274.684,58.447 C271.444,64.24 267.035,67.669 260.512,69.059 Z M342.026,21.423 L351.691,21.423 L351.691,68.246 L351.014,68.246 C346.053,68.246 342.026,64.222 342.026,59.258 L342.026,21.423 Z" id="Fill-28"></path>
                <path d="M14.145,68.246 C4.694,68.246 -1.42108547e-13,61.814 -1.42108547e-13,52.834 L-1.42108547e-13,18.759 C-1.42108547e-13,13.795 4.023,9.771 8.99,9.771 L9.667,9.771 L9.667,21.423 L26,21.423 L26,30.709 L9.667,30.709 L9.667,53.908 C9.667,57.854 11.429,58.963 15.197,58.963 L26,58.963 L26,68.246 L14.145,68.246 Z M70.291,62.326 C65.511,66.907 59.772,69.202 53.104,69.202 C46.498,69.202 40.788,66.905 36.016,62.326 C31.223,57.731 28.832,51.883 28.832,44.835 C28.832,31.084 39.336,20.469 53.104,20.469 C59.713,20.469 65.435,22.783 70.241,27.391 C75.064,32.016 77.471,37.847 77.471,44.835 C77.471,51.883 75.08,57.731 70.291,62.326 Z M115.484,32.689 C114.066,35.067 112.968,36.774 112.194,37.804 C111.34,38.923 110.499,39.819 109.666,40.436 C116.384,42.609 118.886,47.263 118.886,54.197 L118.886,68.246 L118.206,68.246 C113.241,68.246 109.216,64.222 109.216,59.258 L109.216,55.149 C109.216,50.662 107.206,47.613 102.447,47.613 L93.667,47.613 L93.667,68.246 L92.99,68.246 C88.025,68.246 84,64.222 84,59.258 L84,9.399 C84,4.436 88.025,0.41 92.99,0.41 L93.667,0.41 L93.667,38.232 L96.524,38.232 C99.663,38.232 101.729,37.161 102.911,35.129 L111.033,21.425 L122.049,21.415 L115.484,32.689 Z M165.387,62.326 C160.611,66.907 154.87,69.202 148.201,69.202 C141.597,69.202 135.889,66.905 131.111,62.326 C126.321,57.731 123.933,51.883 123.933,44.835 C123.933,31.084 134.432,20.469 148.201,20.469 C154.812,20.469 160.535,22.783 165.34,27.391 C170.161,32.016 172.57,37.847 172.57,44.835 C172.57,51.883 170.179,57.731 165.387,62.326 Z M158.41,33.94 C155.746,31.15 152.358,29.752 148.201,29.752 C139.305,29.752 133.98,36.239 133.98,44.835 C133.98,53.312 139.433,59.916 148.201,59.916 C156.976,59.916 162.421,53.312 162.421,44.835 C162.421,40.334 161.072,36.723 158.41,33.94 Z M63.31,33.94 C60.646,31.15 57.262,29.752 53.104,29.752 C44.206,29.752 38.883,36.239 38.883,44.835 C38.883,53.312 44.335,59.916 53.104,59.916 C61.875,59.916 67.327,53.312 67.327,44.835 C67.327,40.334 65.976,36.723 63.31,33.94 Z" id="Fill-29"></path>
            </g>
        </g>
    </g>
</svg>